<?xml version="1.0" standalone="no"?>
<!DOCTYPE svg PUBLIC "-//W3C//DTD SVG 20010904//EN"
 "http://www.w3.org/TR/2001/REC-SVG-20010904/DTD/svg10.dtd">
<svg version="1.0" xmlns="http://www.w3.org/2000/svg"
 width="593.000000pt" height="600.000000pt" viewBox="0 0 593.000000 600.000000"
 preserveAspectRatio="xMidYMid meet">
<metadata>
Created by potrace 1.16, written by Peter Selinger 2001-2019
</metadata>
<g transform="translate(0.000000,600.000000) scale(0.100000,-0.100000)"
fill="#000000" stroke="none">
<path d="M3722 5898 c4 -10 102 -39 118 -35 3 1 20 -7 39 -17 19 -10 59 -27
89 -37 31 -11 71 -28 90 -39 18 -11 37 -18 42 -15 13 8 100 -45 100 -61 0 -8
7 -14 16 -14 8 0 13 4 10 9 -4 5 3 7 14 4 11 -3 20 -9 20 -14 0 -5 7 -9 15 -9
9 0 18 -7 22 -16 3 -8 12 -13 20 -10 9 4 17 -1 20 -13 3 -14 13 -19 31 -18 22
2 27 -2 25 -20 -3 -26 7 -29 25 -11 9 9 15 9 20 3 4 -6 20 -19 35 -28 17 -11
26 -24 23 -33 -3 -8 1 -14 9 -14 9 0 12 -6 8 -17 -4 -11 -3 -14 5 -9 6 4 21 2
32 -4 17 -9 20 -8 20 7 0 15 2 16 10 3 6 -10 4 -20 -7 -33 -15 -16 -15 -19 5
-33 12 -8 22 -23 23 -32 0 -14 2 -14 6 -2 8 20 29 40 42 40 6 0 8 -7 5 -15 -4
-8 -13 -15 -21 -15 -12 0 -13 -3 -4 -14 15 -18 59 -26 65 -12 3 6 2 -2 -1 -19
l-6 -30 22 20 22 19 -11 -28 c-11 -30 -6 -42 32 -77 10 -9 18 -25 19 -35 0
-11 3 -13 6 -6 5 14 33 17 33 3 0 -14 -28 -33 -40 -26 -5 3 -10 12 -10 19 0
16 -30 17 -48 3 -10 -8 -16 -7 -23 6 -10 17 -39 13 -39 -5 0 -6 7 -8 15 -4 20
7 19 0 -5 -24 -21 -21 -28 -46 -10 -35 6 3 10 0 10 -8 0 -16 -31 -18 -42 -2
-4 6 -8 2 -8 -9 0 -12 -5 -16 -16 -12 -9 3 -20 6 -26 6 -6 0 -8 9 -5 20 3 11
1 23 -4 26 -11 6 -12 25 -1 22 16 -3 80 32 86 47 22 58 -37 118 -81 82 -10 -7
-13 -4 -13 9 0 15 -5 12 -19 -11 -12 -21 -15 -32 -7 -37 8 -5 6 -16 -5 -35
-12 -23 -22 -28 -48 -26 -39 1 -48 9 -53 42 -2 20 5 28 37 45 32 17 41 27 43
54 2 18 -1 32 -7 32 -6 0 -11 7 -11 15 0 11 -11 15 -36 15 -23 0 -41 6 -49 16
-10 15 -12 13 -13 -14 0 -17 -8 -42 -17 -55 -13 -20 -13 -26 -3 -30 10 -4 11
-7 1 -18 -11 -11 -13 -11 -13 1 0 9 -5 7 -14 -6 -8 -10 -18 -16 -22 -12 -4 5
1 17 11 28 16 17 16 20 3 15 -9 -4 -19 -13 -22 -21 -11 -28 -36 -15 -36 19 1
25 8 36 33 52 62 39 59 94 -5 110 -22 6 -33 1 -59 -24 -17 -18 -36 -30 -43
-28 -14 5 -39 -20 -32 -32 4 -6 18 -6 35 -1 23 6 29 5 25 -5 -7 -17 -20 -21
-64 -20 -27 0 -36 5 -42 25 -6 19 -7 17 -3 -9 3 -19 12 -42 20 -51 8 -9 15
-21 15 -26 0 -5 10 -15 21 -23 18 -11 23 -11 30 1 5 7 7 18 5 25 -3 6 5 19 16
30 12 10 18 12 14 6 -4 -7 -3 -13 3 -13 11 0 26 -56 22 -84 -1 -10 2 -15 7
-12 6 4 13 2 17 -4 4 -7 12 -7 25 0 20 11 50 4 50 -11 0 -5 -7 -9 -15 -9 -8 0
-15 -4 -15 -10 0 -5 5 -10 10 -10 13 0 13 -11 0 -30 -9 -13 -11 -13 -19 0 -6
8 -14 11 -18 6 -4 -5 -2 -11 5 -13 6 -3 12 -11 12 -19 0 -14 30 -8 41 8 3 4
15 -1 26 -12 20 -18 22 -18 26 -2 3 9 5 4 6 -13 1 -23 3 -27 11 -15 8 12 10
12 10 -5 0 -16 -7 -20 -32 -20 -17 0 -33 -6 -35 -13 -3 -7 1 -10 9 -7 22 8 77
13 81 6 2 -3 2 -1 1 6 -5 22 13 23 39 3 16 -13 28 -16 32 -10 11 18 26 10 39
-21 8 -19 16 -27 20 -20 4 6 12 11 18 11 6 0 3 -8 -6 -19 -16 -18 -16 -19 8
-25 37 -9 82 -56 64 -67 -7 -5 -8 -9 -3 -9 6 0 4 -4 -4 -9 -18 -11 -6 -65 12
-55 7 4 5 -1 -4 -12 -37 -45 -29 -64 11 -24 27 27 38 5 11 -24 -27 -28 -28
-43 -1 -16 24 24 49 28 30 5 -7 -8 -8 -15 -2 -15 15 0 35 28 27 40 -6 9 7 14
28 11 4 0 7 6 7 15 0 8 5 12 10 9 6 -3 10 -17 10 -31 0 -29 28 -76 41 -68 5 3
9 -2 9 -12 0 -11 6 -15 20 -11 21 5 29 -8 9 -15 -13 -4 -21 -58 -9 -58 4 0 13
7 20 15 9 10 9 15 1 15 -6 0 -11 5 -11 10 0 6 9 10 21 10 15 0 19 -5 15 -15
-3 -9 3 -24 15 -36 11 -11 17 -24 14 -29 -4 -6 -1 -10 4 -10 13 0 14 10 1 30
-10 16 4 30 30 30 11 0 11 -3 2 -12 -17 -17 -16 -59 2 -52 11 4 13 0 9 -15 -3
-13 -1 -21 7 -21 7 0 10 -7 6 -15 -3 -8 0 -15 7 -15 9 0 9 -2 0 -8 -9 -6 -7
-12 7 -25 19 -16 20 -16 20 3 0 11 5 20 11 20 6 0 8 -8 5 -17 -4 -13 0 -11 13
5 17 20 20 20 20 5 2 -48 2 -60 7 -91 3 -18 8 -30 13 -28 4 3 5 -8 3 -25 -4
-27 12 -42 20 -19 4 13 68 31 68 20 0 -5 -12 -16 -27 -24 -16 -8 -22 -15 -15
-16 6 0 12 -7 12 -16 0 -8 4 -13 9 -9 5 3 12 1 16 -4 3 -5 -3 -15 -12 -21 -16
-10 -16 -11 5 -7 14 4 22 0 22 -9 0 -8 -8 -14 -17 -14 -17 -1 -17 -2 0 -14 12
-9 14 -16 8 -21 -6 -3 -11 -11 -11 -18 0 -8 3 -8 12 1 7 7 19 12 27 12 11 0
10 -4 -6 -15 -24 -17 -37 -57 -27 -88 6 -18 9 -15 23 23 9 24 21 45 27 47 16
5 26 -40 11 -49 -8 -5 -7 -8 6 -8 19 0 21 -8 8 -29 -7 -11 -1 -22 22 -43 18
-15 26 -28 20 -28 -7 0 -13 -5 -13 -12 0 -7 7 -5 18 6 13 14 14 20 4 23 -10 4
-9 9 4 24 23 26 32 24 36 -8 l3 -28 18 32 c16 30 21 32 63 31 38 -2 50 2 65
21 21 26 18 53 -9 84 -28 31 -85 16 -102 -29 -5 -13 -16 -24 -25 -24 -14 0
-14 3 1 25 24 37 9 43 -25 11 -21 -20 -35 -26 -50 -21 -23 7 -27 20 -10 30 5
4 14 18 19 31 8 20 16 24 50 24 51 0 95 38 84 72 -17 54 -63 64 -121 26 -22
-14 -56 -31 -76 -36 -46 -13 -54 4 -27 59 18 33 24 38 45 33 33 -8 60 3 80 32
15 23 15 28 0 56 -14 28 -14 33 1 49 16 17 58 34 49 19 -3 -5 0 -12 6 -16 6
-4 9 -19 5 -35 -5 -27 -4 -28 14 -19 27 15 33 13 27 -11 -4 -15 0 -23 13 -26
15 -4 17 -10 9 -36 -12 -43 -11 -47 6 -17 14 24 20 16 16 -19 -2 -7 3 -10 9
-6 8 5 9 -3 5 -29 -8 -42 6 -48 29 -14 16 23 19 19 17 -17 -2 -26 21 -72 45
-89 12 -10 18 -25 16 -47 -2 -29 3 -38 33 -58 19 -13 35 -30 35 -37 0 -8 4
-14 10 -14 10 0 7 -72 -5 -102 -5 -11 -2 -18 5 -18 9 0 10 -3 1 -14 -9 -10 -8
-16 4 -26 8 -7 15 -28 15 -47 0 -27 3 -34 15 -29 18 7 20 -15 3 -32 -9 -9 -8
-12 6 -12 13 0 16 -5 11 -20 -5 -14 -2 -20 9 -20 9 0 16 -5 16 -11 0 -6 -7 -9
-15 -5 -8 3 -15 1 -15 -4 0 -5 -10 -11 -22 -13 l-23 -4 23 -8 c12 -4 22 -14
22 -21 0 -9 11 -14 28 -14 27 -1 27 -1 7 -18 -11 -9 -20 -23 -21 -29 -2 -29
-5 -33 -19 -33 -8 0 -15 -7 -15 -15 0 -8 -4 -15 -10 -15 -5 0 -10 4 -10 10 0
5 -7 7 -16 3 -13 -5 -13 -8 -2 -15 8 -6 -7 -8 -45 -5 -37 2 -60 0 -65 -8 -9
-16 -36 -25 -49 -17 -6 4 -13 18 -17 32 -3 14 -3 19 0 12 4 -9 14 -5 36 13 22
19 36 24 52 18 36 -12 77 -6 97 13 16 17 16 24 6 57 -7 20 -20 40 -30 43 -26
8 -87 -5 -87 -18 0 -6 -3 -8 -7 -5 -3 4 -13 2 -20 -5 -11 -9 -16 -9 -22 1 -11
18 -57 10 -52 -9 10 -39 5 -56 -21 -82 -16 -16 -34 -25 -40 -22 -6 4 -8 3 -4
-4 3 -5 0 -13 -6 -15 -9 -4 -9 -6 -1 -6 6 -1 25 10 41 24 40 33 46 32 22 -7
-10 -17 -16 -36 -13 -41 3 -5 8 -5 12 1 3 5 7 -19 9 -55 2 -56 0 -64 -14 -59
-10 4 -14 1 -11 -6 2 -7 16 -13 31 -13 24 1 26 -2 20 -28 -5 -26 -4 -28 14
-23 15 5 21 1 26 -19 4 -14 2 -34 -4 -45 -13 -24 -13 -40 0 -40 6 0 10 7 10
15 0 8 5 15 11 15 6 0 8 -9 3 -22 -6 -22 -5 -21 23 5 33 30 49 33 77 12 24
-18 68 -19 84 -3 7 7 12 29 12 50 0 31 4 38 20 38 20 0 27 -14 11 -24 -5 -3
-11 -14 -14 -25 -4 -15 0 -18 17 -15 19 3 21 -1 21 -36 0 -34 -1 -37 -15 -25
-13 12 -15 6 -13 -58 3 -83 11 -135 24 -143 11 -6 12 -44 2 -44 -11 0 -32 -48
-25 -55 3 -3 13 -5 22 -5 24 0 18 -37 -8 -56 -31 -21 -27 -43 8 -50 16 -4 27
-10 24 -15 -3 -5 -10 -6 -16 -3 -6 4 -8 -1 -3 -15 4 -12 2 -21 -4 -21 -6 0
-11 9 -11 20 0 22 -15 27 -23 8 -3 -7 -6 -4 -6 8 -1 11 -12 27 -26 34 -13 7
-22 16 -20 21 3 4 -18 0 -45 -9 -48 -15 -52 -15 -95 6 -25 12 -45 29 -45 37 0
20 -6 19 -30 -5 -24 -24 -26 -34 -5 -26 8 3 14 2 13 -2 -1 -4 2 -15 7 -25 7
-17 -14 -107 -26 -107 -4 0 -9 -9 -12 -19 -3 -14 -11 -18 -25 -14 -14 3 -22
-1 -27 -17 -4 -12 -4 -24 -1 -27 3 -4 6 1 6 9 0 24 27 30 33 7 3 -12 0 -22 -9
-26 -8 -3 -14 -10 -14 -15 0 -6 11 -3 25 6 25 16 45 14 45 -5 0 -5 -9 -9 -20
-9 -11 0 -20 -7 -20 -15 0 -8 -5 -15 -12 -15 -6 0 -8 -3 -5 -6 14 -14 74 -13
109 3 35 15 38 14 64 -6 15 -12 41 -21 60 -21 29 0 35 4 40 28 3 15 8 34 10
43 8 30 -30 51 -83 46 -48 -5 -73 3 -106 31 -16 14 -15 17 24 40 l42 25 42
-23 c50 -27 95 -22 95 11 0 11 5 17 10 14 14 -9 12 -21 -7 -41 -16 -16 -16
-16 6 -9 21 6 23 5 17 -11 -6 -18 -5 -18 9 0 8 10 16 24 18 30 2 6 8 8 12 3 5
-4 1 -23 -8 -42 -21 -44 -21 -45 -1 -45 10 0 14 -6 11 -14 -17 -44 -27 -100
-22 -119 6 -21 6 -22 -9 -3 -16 19 -16 19 -16 -2 0 -12 -4 -22 -8 -22 -7 0
-32 -42 -32 -54 0 -1 7 -3 15 -3 8 0 15 8 15 18 0 10 5 21 12 25 7 4 8 3 4 -4
-4 -7 -3 -12 3 -12 7 0 7 -8 0 -26 -5 -15 -8 -29 -5 -31 2 -3 -1 -21 -8 -41
-22 -63 -28 -94 -16 -87 5 3 10 -1 10 -10 0 -11 -5 -15 -16 -11 -8 3 -12 2 -9
-4 3 -6 1 -10 -4 -10 -6 0 -11 -15 -11 -34 0 -18 -7 -39 -16 -47 -14 -11 -13
-14 7 -24 14 -8 18 -15 10 -19 -6 -4 -11 -2 -11 4 0 6 -5 8 -10 5 -7 -4 -7
-13 0 -26 13 -23 -2 -26 -20 -4 -17 20 -50 19 -50 -1 0 -10 6 -14 15 -10 12 4
15 -3 15 -36 0 -35 2 -39 15 -28 8 7 15 9 15 4 0 -14 -16 -36 -26 -36 -23 -1
-32 -12 -38 -48 -8 -52 -26 -90 -42 -90 -10 0 -11 -6 -4 -24 7 -19 5 -26 -6
-30 -8 -3 -12 -12 -9 -18 4 -7 0 -5 -8 5 -10 12 -17 14 -22 8 -3 -6 -2 -11 3
-11 19 0 23 -34 7 -47 -10 -7 -14 -19 -11 -30 4 -11 -4 -29 -20 -48 -31 -36
-86 -145 -73 -145 5 0 9 -4 9 -10 0 -5 -9 -10 -20 -10 -11 0 -20 -6 -20 -14 0
-7 -6 -19 -14 -26 -8 -6 -12 -19 -9 -28 3 -11 2 -13 -4 -5 -12 16 -63 11 -63
-7 0 -11 -3 -11 -12 -2 -19 19 -30 14 -18 -7 13 -25 13 -34 0 -26 -5 3 -10 1
-10 -4 0 -6 5 -11 10 -11 6 0 10 -9 10 -20 0 -13 -12 -26 -36 -37 -34 -16 -36
-20 -31 -55 4 -32 2 -37 -19 -42 -23 -6 -34 -26 -14 -26 16 0 12 -19 -10 -50
-11 -15 -16 -31 -12 -35 4 -5 1 -5 -5 -1 -7 4 -13 2 -13 -4 0 -6 -4 -8 -10 -5
-5 3 -12 -5 -16 -19 -3 -14 -17 -32 -30 -41 -37 -24 -29 1 16 47 40 42 48 62
30 73 -5 3 -10 -3 -10 -15 0 -17 -4 -20 -20 -15 -15 5 -18 3 -14 -8 3 -8 -2
-21 -10 -30 -9 -9 -16 -20 -16 -26 0 -6 -4 -11 -10 -11 -5 0 -10 -11 -10 -24
0 -15 -7 -26 -17 -29 -17 -4 -17 -5 0 -6 19 -1 24 -36 5 -47 -7 -4 -8 -3 -4 4
4 7 2 12 -3 12 -6 0 -11 -7 -11 -15 0 -8 -5 -15 -12 -15 -6 0 -19 -7 -28 -15
-16 -14 -18 -12 -24 26 -9 57 -19 42 -17 -27 1 -50 -1 -55 -15 -43 -13 10 -17
10 -24 -1 -5 -8 -12 -11 -17 -7 -11 12 12 42 31 39 16 -3 22 9 10 21 -8 8 -47
-12 -57 -29 -13 -23 -29 -16 -21 8 6 20 5 21 -10 6 -13 -14 -14 -21 -4 -43 9
-19 9 -28 0 -37 -9 -9 -12 -9 -12 0 0 9 -7 8 -23 -3 -13 -8 -28 -12 -32 -8 -5
5 -3 0 4 -9 12 -16 11 -18 -3 -18 -10 0 -14 -5 -11 -10 3 -5 1 -10 -5 -10 -6
0 -8 -5 -5 -10 4 -6 1 -9 -6 -8 -7 2 -18 -7 -24 -20 -11 -25 -25 -29 -25 -8 0
9 -13 13 -39 13 -39 0 -39 0 -53 -51 -13 -45 -17 -51 -40 -48 -13 2 -31 -4
-38 -12 -7 -9 -17 -16 -22 -16 -16 0 -68 -43 -68 -57 0 -7 -9 -13 -21 -13 -15
0 -19 -5 -15 -15 3 -8 1 -15 -4 -15 -6 0 -10 -11 -10 -24 0 -13 -7 -29 -15
-36 -14 -11 -14 -10 -5 15 10 26 9 27 -12 21 -13 -3 -26 -6 -30 -6 -15 0 -8
-20 7 -20 27 0 16 -19 -12 -22 -16 -2 -28 -9 -28 -17 0 -7 -10 -17 -22 -22
-19 -7 -23 -5 -23 13 0 16 3 18 14 9 11 -9 15 -6 18 14 3 14 1 25 -3 25 -5 0
-9 -4 -9 -10 0 -5 -7 -10 -15 -10 -9 0 -15 -9 -15 -25 0 -13 -8 -29 -17 -34
-16 -9 -16 -12 -3 -21 9 -6 11 -10 3 -10 -19 0 -53 41 -54 64 0 21 -1 21 -8 1
-5 -11 -4 -21 0 -23 15 -6 10 -22 -6 -22 -9 0 -15 -9 -15 -22 -1 -22 -2 -21
-16 5 -12 23 -18 26 -35 17 -11 -6 -18 -14 -16 -18 5 -9 -30 -42 -37 -35 -12
12 -6 -23 7 -36 10 -12 9 -13 -7 -7 -11 4 -26 0 -36 -9 -16 -15 -18 -14 -24
11 -4 14 -14 33 -21 41 -13 13 -15 12 -15 -6 0 -12 5 -21 11 -21 5 0 7 -5 4
-10 -3 -6 -1 -10 5 -10 6 0 1 -13 -12 -28 -16 -20 -31 -28 -50 -27 -16 1 -28
-1 -28 -5 0 -4 -11 -7 -25 -7 -29 0 -30 1 -10 21 14 13 13 15 -2 14 -10 -1
-27 2 -39 6 -14 4 -26 1 -33 -8 -7 -8 -19 -12 -27 -9 -8 3 -14 0 -14 -6 0 -6
-5 -11 -11 -11 -5 0 -8 4 -5 9 11 17 -21 19 -36 2 -14 -16 -13 -19 3 -29 12
-8 26 -9 43 -3 13 6 27 7 32 3 4 -4 4 -2 1 4 -4 7 7 10 28 10 37 -1 49 -22 18
-32 -10 -3 -26 -10 -35 -15 -10 -5 -19 -5 -23 1 -3 6 -15 6 -29 0 -19 -7 -28
-4 -45 16 -11 13 -21 28 -21 33 0 15 -33 22 -42 9 -6 -10 -8 -10 -9 2 -1 8 -1
18 0 22 0 4 -6 5 -14 1 -12 -4 -13 -8 -4 -19 9 -12 7 -20 -10 -38 -18 -19 -19
-24 -7 -29 8 -3 17 -1 19 6 7 21 15 3 10 -24 -4 -22 -9 -25 -44 -24 -21 1 -39
-2 -39 -7 0 -4 -7 -5 -16 -1 -9 3 -19 1 -23 -6 -4 -6 -25 -13 -47 -15 -21 -3
-66 -9 -99 -15 -172 -29 -627 -34 -740 -8 -11 3 -83 15 -160 27 -77 11 -153
25 -170 30 -16 5 -43 11 -60 14 -49 7 -177 44 -230 66 -11 4 -28 11 -37 14
-10 3 -16 11 -14 18 1 7 1 10 -1 6 -6 -11 -33 -10 -33 1 0 5 -9 7 -20 4 -11
-3 -20 0 -20 6 0 6 -3 10 -7 9 -14 -5 -73 24 -73 34 0 6 -8 8 -18 6 -10 -3
-27 1 -37 8 -10 8 -27 14 -37 14 -10 0 -18 7 -18 15 0 8 8 15 18 15 18 0 59
57 48 67 -3 4 -6 1 -6 -6 0 -7 -4 -10 -9 -7 -5 3 -12 -4 -16 -17 -3 -12 -9
-17 -11 -10 -8 18 -34 4 -34 -18 0 -10 -2 -19 -3 -19 -8 0 -175 88 -214 113
-24 15 -43 31 -43 36 0 5 -11 8 -25 8 -30 0 -60 33 -42 45 9 6 9 8 0 8 -10 0
-10 6 -1 25 13 28 45 42 61 26 8 -8 6 -11 -9 -11 -20 0 -44 -17 -44 -32 0 -4
6 -6 13 -4 6 1 9 1 5 -1 -5 -3 -8 -11 -8 -19 0 -17 38 -13 50 5 6 10 10 10 18
-1 45 -54 60 -68 64 -56 3 9 12 6 32 -9 15 -12 27 -24 27 -27 -1 -3 -1 -8 -1
-11 0 -3 11 2 25 11 22 14 25 14 25 1 0 -8 -6 -17 -12 -20 -7 -3 3 -3 24 -2
29 3 37 -1 41 -16 7 -27 26 -24 37 7 10 26 13 71 3 47 -8 -21 -26 -15 -20 7 3
12 1 20 -6 19 -7 -1 -20 2 -31 6 -11 5 -26 3 -37 -3 -29 -18 -34 -14 -13 9 14
16 15 21 4 17 -20 -7 -50 9 -50 27 0 8 -4 15 -10 15 -13 0 -13 -17 0 -25 13
-8 13 -25 1 -25 -5 0 -13 9 -16 20 -3 11 -15 20 -25 20 -10 0 -20 5 -22 11 -2
6 -16 12 -32 12 -20 0 -24 3 -17 10 6 6 11 18 11 26 0 8 -3 11 -7 8 -3 -4 -12
-2 -19 4 -8 6 -21 8 -30 5 -11 -4 -18 1 -21 14 -5 17 -11 20 -35 15 -24 -6
-33 -2 -53 21 -20 23 -26 26 -39 15 -26 -22 -19 -39 14 -37 35 2 40 -9 8 -17
-12 -4 -19 -9 -16 -12 3 -4 23 -2 44 4 43 12 58 6 31 -13 -9 -7 -17 -21 -17
-30 0 -9 -4 -16 -10 -16 -5 0 -10 5 -10 10 0 6 -9 10 -21 10 -11 0 -17 5 -14
10 4 6 -7 13 -23 16 -21 4 -28 11 -28 27 1 18 -4 22 -27 20 -21 -1 -27 2 -23
12 3 9 0 12 -8 9 -7 -3 -27 6 -44 20 -16 15 -35 26 -41 26 -6 0 -11 6 -11 13
0 7 -9 18 -20 25 -12 7 -18 18 -14 24 4 6 8 25 9 42 1 17 0 25 -2 19 -3 -7
-12 -13 -21 -13 -12 0 -13 -3 -4 -12 7 -7 12 -18 12 -25 0 -20 -21 -15 -27 6
-3 11 -16 22 -30 25 -18 5 -23 11 -18 26 5 15 2 20 -13 20 -22 0 -86 66 -77
80 9 15 -9 19 -28 5 -16 -11 -3 -26 128 -153 235 -228 478 -399 770 -542 258
-127 522 -212 810 -262 118 -21 162 -23 480 -23 318 0 362 2 480 23 293 51
554 136 820 267 310 153 536 315 780 560 137 137 301 328 339 394 6 10 36 57
68 103 215 317 374 728 450 1163 21 119 23 161 23 485 0 324 -2 366 -23 485
-94 535 -297 994 -624 1408 -45 56 -151 172 -237 257 -334 332 -705 562 -1152
711 -157 52 -173 56 -167 37z m1168 -729 c0 -7 10 -9 26 -5 24 6 25 5 20 -21
-3 -15 -1 -35 5 -43 9 -12 10 -11 6 7 -3 13 -1 25 3 28 4 3 6 15 4 28 -4 20
-3 20 7 -3 7 -14 13 -29 14 -35 1 -5 7 -25 14 -43 10 -25 16 -30 26 -22 10 8
15 8 20 0 4 -7 -2 -14 -14 -17 -12 -3 -21 -12 -21 -19 0 -8 -7 -14 -16 -14
-14 0 -14 3 -4 15 8 9 8 15 2 15 -15 0 -21 -22 -11 -42 6 -11 5 -19 -3 -24 -7
-4 -8 -3 -4 4 4 7 3 12 -3 12 -5 0 -11 6 -13 13 -2 9 -8 7 -21 -6 -18 -18 -18
-19 3 -12 18 6 21 3 18 -11 -2 -10 -13 -24 -26 -30 -12 -6 -19 -14 -15 -17 12
-13 -31 -36 -66 -37 -28 0 -32 3 -26 18 4 9 8 28 9 42 1 18 8 26 26 30 54 11
85 51 74 95 -4 16 -11 22 -22 18 -12 -5 -14 -1 -10 15 4 12 2 25 -3 28 -5 3
-9 -1 -10 -8 -1 -15 -17 21 -18 40 -1 6 6 12 14 12 8 0 15 -5 15 -11z m170
-235 c0 -11 6 -14 20 -9 11 4 20 2 20 -4 0 -6 -4 -11 -9 -11 -5 0 -16 -11 -25
-25 -9 -14 -12 -25 -7 -25 5 0 12 9 16 19 3 11 12 18 19 15 7 -3 19 2 26 11
17 20 31 19 23 -2 -4 -10 -2 -14 5 -9 17 10 23 -10 7 -24 -12 -10 -15 -10 -15
1 0 8 -9 4 -21 -11 -20 -24 -20 -24 -14 -2 4 13 2 22 -4 22 -6 0 -11 -4 -11
-8 0 -5 -11 -22 -25 -38 -14 -16 -28 -37 -31 -47 -3 -10 -12 -16 -20 -13 -7 3
-16 1 -19 -4 -6 -10 -75 -11 -75 0 0 3 4 10 9 16 5 5 11 20 13 32 2 17 14 28
41 37 54 18 69 34 65 67 -3 15 -1 28 4 28 4 0 8 -7 8 -16z m150 -69 c-15 -19
-7 -29 23 -30 18 0 22 -5 20 -27 -2 -29 11 -38 20 -15 4 7 6 6 6 -5 1 -27 -10
-48 -26 -48 -8 0 -12 -4 -9 -9 10 -16 -18 -29 -52 -24 -24 4 -32 10 -28 20 3
8 1 11 -4 8 -6 -3 -8 -16 -5 -28 4 -14 -3 -32 -18 -51 -19 -23 -31 -28 -70
-30 -31 -1 -47 3 -47 11 0 6 4 14 9 17 4 3 11 19 14 36 6 26 11 30 38 30 20 0
40 9 60 29 34 35 36 51 9 76 -25 23 -26 35 -1 28 11 -3 30 2 43 11 28 20 34
20 18 1z m89 -158 c12 -15 12 -17 -3 -11 -11 4 -16 1 -16 -14 0 -11 7 -23 16
-26 8 -3 12 -2 9 3 -7 12 12 24 25 16 8 -5 7 -11 -1 -21 -8 -10 -8 -14 0 -14
6 0 11 -9 11 -20 0 -11 5 -20 10 -20 6 0 10 -4 10 -8 0 -13 -68 -47 -76 -39
-7 7 -58 -30 -60 -44 -1 -5 -2 -14 -3 -20 0 -5 -6 -7 -12 -4 -16 10 -69 12
-75 3 -3 -4 -9 -8 -14 -8 -5 0 2 23 16 50 22 44 29 50 56 50 35 0 78 33 78 60
0 8 -7 26 -16 38 -13 19 -13 22 -1 22 8 0 18 7 21 16 4 9 8 15 9 13 1 -2 9
-12 16 -22z m505 -1164 c-5 -34 -3 -44 10 -49 14 -5 14 -8 -2 -32 -12 -19 -13
-27 -4 -30 6 -2 12 -10 12 -17 0 -16 -38 -27 -44 -11 -2 6 -5 3 -5 -6 -1 -10
-6 -18 -12 -18 -6 0 -9 7 -6 14 4 10 1 13 -9 9 -7 -3 -14 -1 -14 5 0 15 -53 1
-73 -20 -17 -17 -21 -18 -35 -5 -11 9 -29 13 -49 10 -44 -7 -42 13 3 51 33 27
36 28 79 16 38 -11 48 -10 69 4 21 13 24 21 19 53 -3 21 -10 41 -15 44 -5 3 3
18 17 33 25 27 27 28 46 10 16 -15 19 -25 13 -61z"/>
<path d="M2926 5871 c-29 -11 -35 -41 -18 -84 13 -35 13 -39 -3 -57 -20 -22
-74 -27 -93 -8 -16 16 -15 49 3 75 11 16 13 28 5 47 -8 21 -16 26 -45 26 -31
0 -38 -5 -52 -35 -16 -34 -16 -35 7 -60 l24 -25 -21 -28 c-26 -35 -78 -43 -88
-12 -3 11 -11 18 -16 15 -15 -10 -10 -19 25 -42 40 -26 68 -16 102 35 21 31
22 31 28 9 5 -22 55 -57 81 -57 7 0 27 14 44 31 l31 31 39 -31 c43 -34 63 -38
81 -16 7 8 21 15 31 15 27 0 69 -22 69 -36 0 -18 61 -10 100 12 30 18 32 18
41 1 6 -9 14 -15 20 -12 5 4 9 2 9 -4 0 -6 9 -15 20 -21 15 -8 28 -6 56 10 37
19 38 19 51 0 27 -38 63 -49 112 -34 41 12 45 11 62 -9 10 -12 18 -27 19 -34
0 -8 17 -11 51 -9 27 1 52 -2 55 -6 3 -4 14 -8 24 -8 11 0 27 -11 35 -24 12
-18 27 -25 68 -28 29 -3 60 -9 70 -13 13 -5 17 -2 17 13 0 12 -4 24 -10 27 -5
3 -10 11 -10 16 0 6 4 8 9 5 5 -4 23 6 40 20 34 28 44 84 16 84 -8 0 -24 5
-34 12 -28 17 -50 3 -72 -46 -19 -45 -39 -68 -39 -46 0 7 -7 5 -16 -4 -20 -21
-27 -20 -42 5 -12 19 -10 25 22 58 50 51 48 75 -9 97 -54 20 -64 14 -72 -45
-3 -22 -10 -41 -14 -41 -5 0 -9 -9 -9 -19 0 -28 -17 -35 -25 -11 -5 15 -12 19
-30 14 -36 -9 -39 13 -7 51 17 18 33 44 37 56 4 13 10 17 14 11 4 -6 12 -8 19
-3 7 4 -13 16 -53 30 -63 23 -66 23 -85 6 -14 -13 -20 -31 -20 -62 0 -27 -5
-44 -12 -45 -7 0 -17 -2 -23 -2 -5 -1 -16 -5 -23 -10 -9 -5 -20 -2 -30 8 -14
13 -14 20 -4 34 34 48 42 71 33 95 -10 26 -55 41 -81 27 -28 -15 -43 -55 -31
-79 14 -25 5 -45 -15 -37 -8 3 -14 -1 -14 -9 0 -17 -38 -12 -58 9 -13 13 -12
18 7 42 40 51 21 107 -36 107 -37 0 -56 -29 -50 -80 3 -24 -1 -50 -7 -58 -19
-26 -62 -25 -87 1 l-21 23 26 34 c14 19 26 40 26 48 -1 27 -27 49 -58 49 -40
0 -67 -37 -58 -80 3 -17 2 -30 -3 -30 -5 0 -7 -9 -4 -21 7 -26 -12 -39 -45
-30 -41 11 -49 34 -27 75 33 61 0 111 -59 87z"/>
<path d="M2386 5818 c-22 -30 -20 -57 5 -84 45 -48 -16 -107 -74 -69 -22 14
-23 19 -14 54 14 52 -9 91 -53 91 -46 0 -68 -63 -35 -106 8 -10 15 -31 15 -46
0 -32 -41 -50 -77 -34 -20 10 -22 16 -18 56 6 46 3 55 -27 78 -13 11 -21 11
-40 1 -44 -23 -50 -60 -17 -103 28 -36 19 -72 -21 -81 -47 -10 -65 6 -61 55 3
47 -19 80 -53 80 -33 0 -46 -14 -52 -51 -5 -28 -1 -38 20 -58 50 -47 17 -111
-45 -89 -26 9 -29 14 -29 53 0 45 -15 69 -50 80 -59 19 -84 -66 -35 -119 49
-53 15 -111 -51 -86 -30 12 -34 12 -34 3 0 -17 56 -38 84 -33 39 7 61 65 46
120 -6 23 -7 47 -2 61 l9 24 7 -23 c4 -12 4 -26 1 -32 -3 -5 -1 -10 5 -10 7 0
10 -6 7 -13 -9 -24 19 -46 63 -49 41 -3 44 -1 64 37 21 39 24 75 5 75 -5 0 -9
11 -9 24 0 17 5 24 18 23 13 -1 17 -10 18 -44 1 -50 16 -71 47 -68 12 1 28 3
35 4 21 2 52 64 50 99 -1 17 -6 32 -10 32 -4 0 -8 5 -8 11 0 5 5 7 12 3 7 -4
8 -3 4 5 -8 12 21 47 31 38 3 -3 6 -31 7 -61 0 -31 4 -56 9 -56 4 0 20 -6 35
-13 34 -18 49 -13 67 23 17 33 20 120 5 120 -5 0 -10 7 -10 16 0 14 3 14 15 4
14 -11 19 -7 16 13 0 4 4 7 9 7 6 0 10 -23 10 -50 0 -42 5 -55 26 -75 52 -48
82 -42 110 23 12 31 12 38 -1 65 -23 46 -20 67 10 67 25 0 31 -17 26 -70 -1
-11 3 -10 14 4 18 24 19 37 3 71 -15 33 -60 35 -82 3z"/>
<path d="M4087 5582 c-10 -10 -18 -34 -18 -53 -1 -19 -3 -26 -6 -16 -3 12 -15
17 -39 17 -30 0 -34 -3 -29 -19 4 -13 0 -23 -11 -29 -11 -6 -15 -16 -10 -27 5
-13 13 -16 37 -11 18 3 44 6 60 6 16 0 29 4 29 10 0 5 -7 7 -16 3 -13 -5 -14
-2 -6 13 6 10 14 33 18 49 l8 30 4 -33 c7 -62 63 -48 87 21 11 32 11 36 -1 26
-8 -6 -14 -7 -14 -2 0 11 -43 33 -64 33 -7 0 -20 -8 -29 -18z"/>
<path d="M1560 5552 c-29 -24 -21 -69 20 -105 24 -22 27 -31 21 -54 -4 -15
-12 -28 -18 -28 -6 0 -14 -3 -18 -6 -3 -4 -19 -2 -35 4 -25 9 -29 16 -28 46 2
57 -70 104 -102 66 -21 -25 -5 -86 30 -116 33 -28 38 -50 15 -69 -8 -7 -12
-17 -8 -23 4 -7 0 -8 -11 -4 -10 4 -29 10 -42 13 -19 5 -24 13 -24 36 0 32
-38 78 -65 78 -25 0 -45 -26 -45 -59 0 -23 9 -37 35 -57 38 -29 47 -71 20 -94
-22 -18 -85 5 -85 31 0 53 -59 90 -99 63 -39 -28 -20 -79 42 -117 29 -19 36
-54 15 -75 -7 -7 -29 -12 -49 -12 -34 0 -37 3 -43 34 -7 37 -18 50 -57 64 -19
8 -31 6 -49 -8 -23 -17 -23 -19 -9 -56 8 -22 26 -44 44 -54 25 -14 30 -23 30
-56 0 -38 -1 -39 -34 -39 -22 0 -37 6 -42 18 -5 9 -13 25 -17 35 -5 9 -21 23
-36 30 -23 12 -31 11 -52 -2 -14 -10 -24 -26 -24 -40 0 -27 45 -76 70 -76 12
0 19 -10 23 -32 6 -42 -7 -58 -47 -58 -26 0 -34 5 -43 29 -22 59 -103 80 -118
30 -14 -42 18 -84 76 -102 21 -7 33 -55 18 -73 -6 -8 -27 -14 -45 -14 -28 0
-35 5 -40 25 -13 53 -82 73 -109 31 -24 -36 7 -96 50 -96 32 0 46 -21 37 -55
-15 -54 -63 -60 -82 -10 -19 51 -103 56 -121 8 -10 -29 32 -83 65 -83 12 0 27
-5 34 -12 14 -14 16 -82 3 -73 -5 3 -12 1 -16 -5 -12 -20 -45 -10 -60 20 -20
38 -81 53 -102 25 -31 -43 -6 -93 52 -102 26 -4 39 -13 46 -30 15 -39 11 -50
-22 -64 -30 -12 -33 -11 -58 19 -21 26 -33 32 -64 32 -85 0 -66 -102 20 -108
32 -2 43 -8 52 -28 15 -34 14 -45 -6 -60 -27 -20 -53 -17 -75 11 -23 30 -92
36 -102 9 -19 -49 16 -99 65 -92 31 5 52 -11 63 -47 8 -28 -5 -44 -43 -51 -27
-6 -33 -4 -38 15 -3 11 -10 21 -17 21 -6 0 -21 3 -33 6 -27 7 -63 -27 -63 -61
0 -33 41 -59 80 -52 23 5 33 1 50 -20 26 -33 22 -54 -13 -71 -25 -12 -30 -11
-58 12 -34 29 -45 31 -83 16 -21 -8 -26 -16 -26 -43 0 -41 42 -70 88 -61 23 5
33 1 46 -17 23 -33 20 -58 -9 -71 -20 -9 -32 -7 -69 12 -42 23 -45 23 -70 7
-40 -27 -36 -72 9 -94 27 -13 40 -14 58 -6 29 14 42 6 57 -31 18 -49 -32 -89
-70 -56 -28 24 -82 26 -104 4 -48 -48 25 -107 99 -81 16 5 24 1 38 -22 37 -62
7 -91 -66 -64 -42 16 -47 16 -71 0 -31 -21 -33 -50 -5 -78 18 -18 29 -20 69
-15 56 8 74 -7 66 -54 -6 -43 -10 -45 -55 -32 -54 17 -75 15 -95 -7 -23 -25
-18 -49 16 -74 25 -19 31 -19 68 -7 22 7 43 11 46 7 3 -3 9 -22 14 -42 7 -30
6 -35 -6 -31 -8 3 -14 1 -14 -5 0 -7 -14 -8 -39 -4 -58 10 -83 -7 -79 -53 2
-30 8 -38 31 -46 19 -7 37 -6 58 1 24 9 31 9 35 -2 3 -8 12 -11 19 -9 10 4 12
-1 8 -18 -9 -37 -23 -48 -62 -48 -77 0 -111 -48 -65 -91 25 -23 64 -21 94 6
24 21 49 -3 47 -46 -2 -33 -3 -34 -52 -40 -77 -9 -88 -16 -81 -53 11 -56 67
-75 107 -35 23 23 55 18 45 -7 -4 -10 -2 -13 6 -8 8 5 9 0 5 -17 -4 -13 -7
-29 -7 -35 0 -6 -23 -14 -52 -17 -58 -7 -71 -19 -63 -61 7 -37 5 -36 48 -43
30 -4 40 -1 61 22 29 31 41 27 61 -21 20 -49 12 -62 -40 -62 -78 0 -107 -37
-70 -89 13 -18 22 -21 48 -16 18 3 41 14 53 24 29 27 61 24 78 -8 23 -44 3
-73 -49 -73 -26 0 -51 -7 -65 -18 -21 -17 -22 -22 -11 -55 19 -56 72 -62 105
-12 9 14 22 25 29 25 23 0 59 -46 55 -72 -3 -20 -10 -23 -48 -26 -44 -3 -90
-32 -90 -56 0 -6 11 -24 24 -40 21 -27 26 -29 57 -20 19 5 38 19 44 32 11 25
23 27 56 9 19 -9 23 -19 21 -44 -3 -31 -6 -33 -41 -33 -66 0 -93 -58 -50 -109
17 -21 24 -23 47 -15 15 5 32 20 39 33 28 57 83 41 83 -25 0 -29 -4 -33 -32
-39 -37 -8 -78 -41 -78 -63 0 -7 13 -27 30 -43 28 -29 30 -29 59 -15 16 9 34
29 39 46 6 16 18 30 26 30 23 0 46 -29 46 -58 0 -21 -9 -32 -37 -47 -20 -11
-42 -30 -50 -41 -12 -19 -11 -25 12 -53 15 -17 33 -31 40 -31 21 0 65 40 65
60 0 10 8 20 19 23 23 6 51 -9 51 -28 0 -7 5 -15 11 -17 16 -5 -1 -38 -20 -38
-9 0 -26 -7 -37 -15 -12 -8 -24 -12 -27 -9 -3 3 -8 -9 -12 -27 -6 -27 -3 -36
23 -61 26 -27 33 -29 58 -21 19 6 33 20 39 39 16 46 24 54 56 54 17 0 28 4 25
9 -4 5 0 12 6 15 7 4 -2 4 -21 1 -27 -4 -32 -2 -27 10 6 16 4 21 -28 85 -11
22 -14 36 -7 38 6 2 11 12 11 22 0 13 -5 17 -20 13 -11 -3 -20 -12 -20 -19 0
-16 -26 -19 -35 -4 -4 6 -11 8 -16 5 -5 -4 -9 13 -9 38 0 30 -5 47 -15 51 -9
3 -12 12 -8 22 5 13 3 15 -8 9 -8 -5 -30 -10 -50 -10 -28 -1 -35 2 -32 13 3 8
14 11 24 9 12 -3 19 0 19 9 0 8 -6 14 -14 14 -11 0 -13 9 -9 35 5 34 4 36 -36
53 -22 9 -41 23 -41 30 0 6 -4 12 -10 12 -5 0 -10 7 -10 16 0 8 5 12 10 9 6
-4 10 8 10 28 0 27 -5 36 -26 45 -14 7 -22 17 -19 22 3 6 -1 13 -9 16 -9 3
-16 14 -17 23 0 10 -4 7 -11 -9 -6 -14 -12 -20 -15 -13 -5 14 14 53 26 53 11
0 1 41 -13 56 -6 6 -17 9 -24 6 -6 -2 -12 2 -12 10 0 8 -12 15 -27 16 -35 3
-39 8 -20 26 8 9 21 32 27 51 11 34 10 37 -20 65 -18 17 -41 30 -51 30 -24 0
-24 4 2 39 28 38 22 71 -18 90 -38 19 -40 28 -12 83 l21 42 -21 17 c-11 9 -21
22 -21 29 0 6 -4 9 -9 5 -18 -11 -21 14 -6 57 21 61 19 75 -15 94 -41 25 -44
39 -13 85 l26 40 -22 23 c-11 12 -18 26 -14 30 4 4 0 12 -10 17 -23 13 -22 23
8 55 14 15 25 33 25 41 0 13 -19 53 -31 63 -20 18 -18 45 6 70 l26 28 -20 38
c-27 50 -26 74 4 103 30 28 30 31 5 76 -25 45 -25 43 10 84 17 18 30 39 30 45
0 6 -13 26 -30 44 -29 32 -31 62 -5 62 7 0 27 13 44 29 30 28 30 30 16 57 -8
16 -15 35 -15 42 0 6 -4 12 -10 12 -5 0 -10 5 -10 10 0 6 6 10 13 10 7 0 26
13 42 30 27 28 28 32 18 74 -10 44 -9 46 24 78 32 31 34 37 30 82 -4 40 -1 51
16 65 48 38 55 49 50 75 -3 14 -9 29 -14 32 -14 8 -10 34 5 34 8 0 28 8 44 17
26 15 31 25 36 74 6 52 10 58 40 73 36 17 49 37 40 61 -13 33 5 63 50 80 l44
17 -2 50 c-1 44 2 52 22 59 13 5 34 9 47 9 32 0 48 32 40 79 l-6 38 42 7 c57
9 69 21 69 67 0 32 10 52 30 54 3 1 24 5 48 9 l42 8 1 51 c1 29 1 59 0 67 -1
11 1 11 9 -2 12 -20 54 -23 93 -9 32 13 42 83 17 121 -18 28 -24 70 -9 70 5 0
12 -13 16 -30 3 -16 9 -30 14 -30 5 0 9 -6 9 -14 0 -17 51 -30 80 -21 38 12
57 116 24 129 -9 4 -14 13 -10 21 3 8 1 15 -4 15 -6 0 -10 7 -10 16 0 34 33 7
48 -40 l16 -48 44 5 c51 6 58 14 67 79 4 26 9 48 12 48 3 0 12 -9 21 -19 16
-18 38 -25 69 -22 7 0 21 18 32 39 16 31 18 46 11 78 -5 21 -10 47 -10 57 0
29 17 19 24 -14 7 -35 26 -30 26 7 0 27 -40 74 -63 74 -8 0 -25 -8 -37 -18z"/>
<path d="M2920 5530 c0 -19 -6 -33 -16 -37 -12 -5 -14 -19 -11 -83 3 -46 0
-83 -6 -89 -6 -6 -4 -15 7 -26 17 -18 22 -40 6 -30 -5 3 -10 -1 -10 -9 0 -9 4
-16 9 -16 4 0 8 -12 8 -27 0 -16 2 -62 5 -103 3 -41 2 -84 -3 -97 -5 -15 -5
-23 1 -23 16 0 31 48 28 87 -1 19 3 37 9 41 6 4 14 36 17 72 l7 65 -18 -30
-17 -30 -6 25 c-3 14 -3 41 0 60 3 19 0 69 -7 110 -13 71 -12 76 7 92 21 17
25 35 14 62 -10 26 -24 18 -24 -14z"/>
<path d="M3063 5316 c3 -8 0 -16 -8 -18 -11 -2 -12 -7 -4 -18 8 -11 12 -12 16
-2 2 6 9 12 14 12 6 0 7 -4 4 -10 -3 -5 0 -7 8 -4 8 3 19 -1 23 -8 14 -22 32
-99 27 -118 -3 -10 3 -32 12 -50 14 -26 14 -37 5 -61 -7 -15 -17 -27 -23 -26
-6 1 -13 -6 -15 -16 -4 -18 20 -20 46 -3 7 4 16 6 19 3 8 -9 -7 -28 -18 -22
-5 4 -12 -1 -15 -9 -3 -9 -13 -16 -21 -16 -8 0 -12 4 -9 9 3 4 -6 6 -20 3 -14
-2 -22 -7 -19 -10 3 -3 -2 -14 -12 -24 -15 -17 -15 -18 6 -18 12 0 33 7 47 16
34 23 43 9 10 -17 -14 -11 -24 -25 -21 -30 4 -5 2 -9 -3 -9 -5 0 -12 -13 -14
-30 -3 -16 -1 -30 4 -30 4 0 8 5 8 12 0 8 3 9 10 2 6 -6 8 -19 4 -28 -5 -14
-9 -15 -15 -5 -6 10 -10 9 -15 -4 -4 -10 -2 -23 4 -29 8 -8 17 -1 32 26 12 20
24 36 27 36 5 0 5 -2 -21 -61 -15 -35 -14 -38 7 -60 34 -37 113 -99 125 -99
25 0 20 -20 -8 -35 -36 -19 -31 -36 7 -26 38 10 52 68 22 93 -11 9 -27 14 -34
11 -21 -7 -20 41 0 61 9 8 16 19 15 23 0 4 3 8 8 8 4 1 18 7 31 14 26 14 36 7
47 -36 3 -13 11 -23 16 -23 6 0 8 8 6 18 -3 10 1 23 9 30 15 15 18 86 3 77 -6
-4 -7 -11 -4 -17 5 -7 -2 -9 -21 -4 -22 6 -34 2 -57 -21 -27 -25 -30 -26 -28
-8 4 40 1 50 -12 37 -17 -17 -33 -15 -18 3 11 13 10 14 -3 10 -10 -4 -17 1
-22 14 -3 12 -11 21 -16 21 -6 0 -5 8 1 20 6 11 12 46 14 78 3 31 11 91 19
132 8 41 11 80 7 85 -13 18 -20 75 -10 75 6 0 10 5 10 11 0 8 -4 8 -13 0 -10
-8 -21 -2 -48 25 -24 25 -40 33 -55 30 -11 -3 -29 1 -40 9 -25 19 -38 19 -31
1z"/>
<path d="M4047 5294 c-15 -13 -37 -24 -48 -24 -11 0 -19 -7 -20 -17 0 -12 -2
-13 -6 -5 -4 10 -8 10 -19 1 -11 -9 -14 -9 -14 1 0 10 -3 10 -15 0 -13 -11
-14 -10 -9 4 3 9 1 16 -6 16 -6 0 -9 -4 -6 -9 7 -11 -52 -77 -61 -68 -3 4 0 7
7 7 7 0 10 3 7 7 -4 3 0 15 10 25 14 16 14 18 0 18 -9 0 -17 10 -19 22 -2 14
-11 24 -23 26 -20 3 -20 3 0 -13 17 -13 18 -17 5 -25 -12 -8 -12 -10 3 -16 21
-8 22 -18 3 -37 -12 -12 -10 -16 15 -31 23 -13 33 -15 43 -6 8 6 18 10 22 9
22 -4 32 3 37 23 5 18 8 20 22 8 15 -12 18 -12 26 3 6 9 17 17 24 17 8 0 15 5
15 10 0 6 5 10 10 10 6 0 10 -7 10 -15 0 -19 14 -19 31 1 10 13 10 17 -2 25
-10 6 -10 9 -1 9 6 0 12 6 12 14 0 30 -24 35 -53 10z"/>
<path d="M3831 5130 c-1 -15 -14 -38 -33 -55 -18 -17 -40 -39 -48 -50 -25 -31
41 20 69 54 21 25 26 27 52 17 23 -8 28 -15 23 -31 -4 -11 -12 -24 -18 -28 -8
-6 -8 -10 2 -14 13 -5 17 -45 5 -41 -10 3 -73 -57 -73 -69 0 -4 -12 -13 -26
-20 -23 -10 -26 -9 -35 13 -5 14 -9 32 -9 40 0 8 -4 14 -9 14 -5 0 -8 -11 -7
-25 0 -14 4 -25 9 -25 4 0 7 -15 7 -34 0 -18 7 -39 15 -46 14 -12 14 -15 0
-30 -13 -14 -14 -19 -3 -24 10 -4 10 -7 1 -12 -7 -3 -10 -11 -7 -19 3 -7 1
-16 -5 -20 -6 -3 -11 -11 -11 -16 0 -6 5 -7 10 -4 6 3 10 -1 10 -10 0 -12 -6
-15 -20 -10 -11 3 -20 2 -20 -4 0 -5 -3 -17 -7 -27 -4 -12 -3 -15 5 -10 7 4
12 2 12 -3 0 -6 -6 -11 -13 -11 -7 0 -18 -9 -25 -20 -15 -25 -49 -26 -56 -2
-6 20 -2 54 6 50 14 -8 38 28 38 58 0 25 -10 45 -35 73 -19 21 -35 44 -35 51
0 8 -3 10 -7 7 -3 -4 -12 -2 -20 4 -10 9 -13 8 -13 0 0 -7 -5 -9 -10 -6 -6 4
-8 10 -6 14 3 4 -9 5 -25 3 -24 -4 -31 0 -36 16 -2 11 -13 22 -23 25 -13 3
-16 0 -13 -12 2 -10 -2 -45 -10 -79 -13 -55 -13 -62 1 -62 10 0 13 -7 10 -25
-3 -14 -1 -28 4 -31 5 -3 6 -14 3 -24 -3 -10 -1 -21 5 -25 6 -4 10 5 10 22 0
16 6 35 12 41 10 10 10 14 0 21 -9 6 -8 12 8 26 20 18 21 18 35 -1 8 -10 19
-32 23 -49 7 -23 5 -31 -7 -36 -14 -6 -14 -8 2 -14 12 -5 15 -11 8 -19 -6 -7
-13 -36 -16 -64 -4 -48 -3 -52 18 -53 20 -1 20 -2 2 -6 -11 -3 -25 -12 -32
-20 -6 -8 -16 -12 -22 -9 -14 9 -25 -14 -12 -27 8 -8 14 -8 23 1 20 20 29 13
23 -20 -4 -18 -8 -35 -11 -38 -3 -3 -37 -5 -75 -5 -54 0 -66 -3 -54 -11 19
-14 102 -7 132 12 11 7 26 29 33 48 12 37 37 54 46 31 4 -8 11 -15 18 -15 6 0
17 -10 25 -21 11 -19 11 -21 -2 -16 -11 4 -15 0 -14 -13 1 -10 5 -16 9 -14 5
3 22 2 39 -1 28 -6 30 -9 27 -48 -2 -23 -7 -42 -13 -42 -5 0 -16 -4 -22 -8 -8
-5 -13 -4 -13 2 0 12 -51 14 -99 5 -18 -4 -31 -13 -31 -21 0 -23 -24 -9 -32
18 -5 18 -7 15 -5 -16 2 -36 0 -40 -28 -45 -17 -4 -48 -19 -70 -33 -133 -89
-129 -83 -65 -107 19 -7 42 -19 50 -26 8 -7 27 -17 41 -23 34 -12 44 -48 18
-62 -28 -14 -47 -6 -102 46 -63 58 -81 59 -72 4 l7 -41 -31 16 c-17 9 -31 21
-31 27 0 6 -7 6 -20 -1 -11 -6 -25 -8 -30 -5 -14 9 -13 3 10 -50 30 -71 61
-110 72 -93 7 10 8 10 6 -2 -3 -19 18 -59 45 -84 13 -13 16 -21 9 -24 -19 -6
-14 -23 13 -48 14 -13 25 -33 25 -45 0 -12 3 -19 7 -15 4 3 6 25 4 48 -2 41
-2 42 18 24 11 -10 21 -32 23 -50 2 -25 7 -31 26 -31 13 0 30 -9 38 -19 16
-23 19 -82 4 -91 -10 -6 38 -75 52 -75 4 0 5 13 2 29 -6 27 9 51 23 37 12 -12
5 -60 -11 -71 -9 -7 -16 -21 -16 -32 0 -11 -7 -26 -15 -33 -8 -7 -15 -22 -14
-34 0 -19 1 -19 10 4 6 13 17 33 26 42 9 10 12 18 7 18 -10 0 17 20 28 20 4 0
7 -10 5 -21 -1 -12 4 -24 11 -26 7 -3 12 -1 11 4 -3 18 2 33 11 33 6 0 10 -7
10 -15 0 -11 11 -15 43 -14 33 2 36 3 12 6 -16 3 -43 18 -59 34 -24 24 -28 35
-25 73 2 24 1 42 -2 40 -12 -7 -69 50 -69 70 0 12 -5 37 -10 57 -8 30 -17 38
-49 47 -24 8 -41 20 -44 31 -3 14 -1 18 9 14 8 -3 14 0 14 5 0 6 -10 12 -22
14 -14 2 -24 12 -28 28 -5 18 -12 24 -26 22 -15 -3 -17 -1 -6 9 6 7 12 22 12
33 0 16 -3 17 -12 8 -17 -17 -27 -15 -23 6 2 9 4 20 4 25 1 4 29 7 64 7 66 0
82 8 110 49 20 29 32 33 117 33 78 0 105 19 122 85 9 37 13 41 29 33 12 -7 20
-7 24 0 3 5 2 10 -4 10 -12 0 -2 32 12 41 6 4 5 19 -2 40 -6 18 -8 35 -5 38 4
3 9 0 11 -7 3 -6 9 -10 14 -6 5 3 10 -14 10 -38 1 -27 3 -34 6 -18 5 29 23 52
23 30 0 -13 2 -13 10 0 5 8 10 21 10 29 0 11 -3 11 -17 0 -15 -12 -16 -12 -10
3 3 10 0 32 -8 50 -8 18 -14 27 -15 20 0 -7 -9 -22 -20 -34 -23 -25 -27 -12
-5 16 21 28 20 57 -2 49 -15 -6 -16 -4 -5 9 7 8 9 23 6 32 -6 15 -8 15 -20 -1
-10 -12 -9 -6 2 19 19 41 34 43 26 3 -3 -19 0 -25 13 -25 12 0 15 5 11 17 -4
9 -2 19 3 22 5 4 13 20 16 36 7 29 7 29 -10 10 -9 -11 -14 -14 -10 -7 4 7 0
12 -9 12 -21 0 -20 16 2 24 54 21 59 28 61 85 2 57 7 73 19 55 13 -20 74 -35
88 -23 8 6 22 8 31 4 48 -21 103 4 118 54 6 20 4 23 -9 18 -19 -7 -21 4 -5 20
12 12 4 64 -9 62 -24 -4 -33 3 -27 20 3 10 -1 24 -10 31 -9 7 -13 21 -10 31 4
11 2 19 -3 19 -5 0 -9 17 -8 38 1 38 -24 79 -38 64 -4 -3 -4 1 -1 10 5 12 0
17 -17 20 -15 2 -24 11 -26 26 -2 12 -10 22 -18 22 -8 0 -14 5 -14 11 0 5 -4
7 -10 4 -5 -3 -10 -3 -10 2 0 15 -48 31 -59 20 -7 -7 -13 -3 -20 14 l-10 24 0
-25z m109 -95 c5 -14 14 -25 19 -25 6 0 8 -7 5 -15 -4 -8 -1 -16 5 -16 42 -5
54 -17 35 -36 -13 -13 -13 -18 -2 -24 11 -7 10 -11 -2 -19 -12 -8 -12 -10 -1
-10 11 0 11 -3 1 -15 -7 -8 -20 -15 -30 -15 -20 0 -35 -27 -18 -32 5 -2 12
-34 14 -71 4 -60 2 -67 -15 -67 -20 0 -41 20 -45 43 -1 8 -9 25 -17 38 -31 46
-30 63 1 120 29 53 39 99 21 99 -14 0 -21 43 -9 57 16 19 27 16 38 -12z m-206
-779 c-3 -9 -10 -16 -16 -16 -5 0 -6 -5 -2 -11 10 -16 -18 -30 -33 -17 -23 19
-27 -1 -6 -25 42 -44 31 -110 -21 -127 -42 -14 -73 -6 -156 36 -36 18 -77 36
-93 40 -43 10 -46 28 -3 20 29 -6 36 -4 36 9 0 14 17 20 48 16 8 -1 24 8 37
21 54 55 110 90 89 56 -5 -8 -2 -9 9 -5 9 3 19 2 22 -3 4 -6 11 -10 16 -10 6
0 8 4 5 9 -4 5 2 7 11 5 10 -3 27 2 38 10 23 17 28 15 19 -8z"/>
<path d="M1835 5059 c-19 -7 -19 -8 2 -8 12 -1 49 -26 81 -56 33 -30 64 -55
68 -55 5 0 28 -19 52 -41 43 -42 43 -44 24 -99 -4 -11 0 -10 16 3 20 18 20 18
15 -2 -3 -12 -9 -21 -13 -21 -11 0 -11 -86 1 -117 11 -30 66 -82 87 -83 15 0
16 -1 -8 45 -11 22 -21 51 -21 65 -1 16 -4 12 -8 -15 l-7 -40 -8 47 c-5 30 -4
59 3 79 13 39 15 109 2 109 -6 0 -17 13 -27 28 -9 16 -31 34 -48 41 -43 16
-126 79 -123 93 1 7 -2 13 -8 13 -8 2 -31 10 -55 20 -3 2 -14 -1 -25 -6z"/>
<path d="M1820 4916 c0 -3 9 -32 20 -65 l21 -58 -26 -52 c-37 -73 -57 -88
-126 -96 -92 -11 -93 -42 -2 -49 37 -4 53 -1 57 9 2 7 15 15 27 17 17 2 28 15
41 52 9 27 14 54 11 59 -3 6 -1 7 4 4 13 -8 47 59 38 73 -8 13 11 13 34 0 15
-7 17 -19 14 -62 -3 -35 -1 -48 5 -38 5 8 12 38 14 67 5 49 4 52 -23 63 -16 7
-34 19 -40 27 -16 18 -69 56 -69 49z"/>
<path d="M2340 4839 c0 -6 -7 -8 -16 -5 -15 6 -16 0 -11 -41 4 -27 9 -57 11
-68 3 -11 5 -38 6 -60 1 -32 3 -36 10 -20 5 11 9 34 9 52 1 50 31 60 65 20 22
-25 27 -38 23 -64 -3 -18 -13 -41 -22 -50 -11 -10 -14 -23 -10 -37 4 -12 7
-31 7 -43 0 -24 10 -27 43 -13 15 7 16 9 4 9 -9 1 -19 9 -21 19 -4 13 10 29
47 57 59 45 111 110 95 120 -5 3 -10 0 -10 -7 -1 -7 -11 -26 -24 -41 -29 -36
-52 -27 -61 24 -4 22 -13 46 -21 53 -8 8 -14 24 -14 35 0 16 -6 21 -25 21 -14
0 -25 -5 -25 -11 0 -12 -42 -8 -52 6 -4 5 -5 20 -1 32 3 13 2 23 -1 23 -3 0
-6 -5 -6 -11z"/>
<path d="M2843 4810 c-13 -5 -23 -16 -23 -24 0 -21 -17 -29 -37 -17 -17 9 -17
10 0 16 21 9 22 25 1 25 -9 0 -18 -9 -21 -20 -5 -19 -60 -38 -93 -31 -8 2 -11
-1 -7 -5 4 -5 25 -8 45 -9 26 0 37 -4 37 -15 0 -8 -5 -14 -12 -13 -6 1 -17
-11 -25 -27 -13 -31 -28 -39 -29 -17 0 6 -4 2 -9 -10 -6 -15 -18 -23 -34 -23
-14 0 -29 -7 -34 -16 -5 -9 -12 -16 -15 -15 -19 2 -40 -14 -48 -36 -6 -15 -15
-23 -23 -20 -8 3 -22 -1 -33 -8 -17 -13 -17 -14 0 -15 14 0 16 -5 11 -25 -4
-16 -2 -25 6 -25 7 0 10 6 7 14 -6 14 21 32 31 21 3 -3 0 -5 -7 -5 -7 0 -11
-6 -8 -14 3 -8 1 -16 -5 -18 -6 -2 -12 -15 -13 -28 -1 -20 -8 -25 -36 -27 -19
-2 -39 -5 -46 -7 -6 -3 -32 2 -59 10 -67 20 -85 18 -54 -5 l24 -19 -24 -11
c-14 -5 -38 -14 -55 -20 l-30 -9 31 -1 c18 -1 47 10 68 24 21 14 41 23 46 20
5 -3 37 -6 72 -6 60 -1 118 -16 118 -30 0 -4 11 -10 25 -13 14 -4 25 -10 25
-15 0 -13 -34 -24 -38 -12 -4 13 -32 15 -32 3 0 -5 10 -19 22 -32 17 -18 23
-20 26 -9 10 30 42 38 42 11 0 -10 13 -25 28 -34 46 -28 89 -72 95 -98 4 -14
21 -47 38 -75 33 -50 38 -64 43 -120 2 -16 8 -30 14 -29 7 1 20 2 29 3 13 1
14 4 5 13 -7 7 -12 20 -12 30 0 9 -20 55 -44 101 -25 47 -43 87 -41 89 3 2
-20 30 -50 62 -30 32 -55 62 -55 68 0 5 -13 23 -30 38 -16 15 -30 33 -30 39 0
6 -6 11 -13 11 -9 0 -14 12 -15 30 0 17 4 30 9 30 5 0 9 7 9 16 0 23 32 74 47
74 7 0 13 3 13 8 1 15 66 80 88 87 12 3 22 11 22 16 0 13 52 2 62 -13 6 -10 8
-8 8 5 0 18 44 25 54 8 4 -5 27 -12 54 -16 38 -5 57 -16 102 -57 30 -27 66
-56 80 -63 15 -8 35 -25 45 -39 11 -14 25 -26 32 -26 7 0 13 -5 13 -11 0 -5 5
-7 10 -4 17 10 11 25 -9 25 -21 0 -51 35 -51 57 0 8 12 18 26 24 39 14 25 19
-22 7 -37 -10 -42 -9 -67 16 -15 15 -25 32 -22 37 4 5 -2 9 -12 9 -10 0 -26
12 -35 28 -29 48 -56 71 -78 65 -16 -4 -20 -1 -19 18 0 13 3 19 5 13 5 -13 44
-7 44 7 0 11 -56 20 -109 17 -30 -2 -46 1 -49 10 -2 7 2 13 9 11 28 -3 39 1
39 16 0 17 -14 18 -47 5z"/>
<path d="M4316 4764 c-3 -8 -10 -13 -15 -10 -7 5 -22 -24 -52 -101 -5 -13 -4
-25 1 -28 18 -11 10 -56 -14 -88 -26 -34 -59 -107 -52 -114 2 -3 15 17 28 43
27 54 45 66 50 32 2 -13 8 27 12 89 7 90 12 115 27 129 18 16 19 16 25 -2 4
-11 16 -30 26 -43 10 -13 15 -27 12 -32 -3 -5 3 -6 12 -2 14 5 16 2 12 -18 -2
-14 2 -31 10 -38 8 -8 11 -22 7 -35 -15 -47 -17 -76 -5 -76 7 0 10 -7 5 -17
-4 -13 0 -11 15 5 12 13 24 21 26 19 9 -9 -27 -141 -42 -158 -8 -9 -14 -20
-13 -25 7 -37 -2 -49 -37 -51 -20 -1 -42 -7 -47 -12 -8 -8 2 -10 33 -8 49 2
61 14 116 110 28 48 61 66 51 26 -3 -13 -1 -19 6 -16 7 2 17 32 22 68 10 62
37 119 57 119 6 0 7 -7 4 -16 -4 -9 0 -27 9 -40 8 -13 12 -30 9 -38 -4 -10 -1
-16 7 -16 9 0 10 -3 4 -8 -16 -11 -14 -42 2 -42 8 0 12 4 9 9 -8 13 4 42 15
35 11 -6 7 -74 -3 -74 -5 0 -8 -14 -8 -31 0 -16 4 -28 9 -25 5 3 11 -3 14 -14
3 -11 1 -20 -4 -20 -5 0 -8 -3 -7 -7 6 -21 -25 -75 -52 -92 -20 -12 -27 -20
-18 -23 21 -7 -51 -107 -82 -114 -14 -3 -33 -9 -42 -15 -16 -8 -18 -4 -18 31
0 22 5 40 10 40 6 0 10 5 10 11 0 6 -7 8 -15 5 -14 -5 -15 3 -10 57 5 56 5 60
-8 38 -10 -17 -13 -48 -9 -120 5 -98 8 -113 20 -96 13 19 50 34 69 29 10 -3
29 4 43 16 62 53 77 68 102 100 23 29 29 32 42 21 13 -11 17 -10 23 5 9 28 63
94 75 94 6 0 8 -9 5 -21 -4 -15 -3 -18 7 -9 10 8 12 5 8 -16 -2 -14 -11 -28
-19 -31 -12 -5 -12 -7 -2 -14 7 -4 19 -3 26 3 10 8 13 5 13 -11 0 -18 -4 -20
-24 -15 -20 5 -23 2 -21 -20 2 -14 -1 -26 -6 -26 -10 0 -39 -60 -39 -80 0 -5
7 -10 16 -10 10 0 14 -6 10 -17 -2 -10 -7 -28 -11 -40 -4 -14 -20 -25 -50 -34
-44 -13 -44 -13 -18 -24 l27 -11 -31 -22 c-17 -12 -38 -22 -46 -22 -27 0 -29
-19 -2 -26 31 -8 31 -18 0 -56 -14 -16 -25 -37 -24 -46 0 -13 2 -13 9 3 4 12
15 27 25 35 9 7 25 30 35 51 19 37 96 102 111 94 4 -3 5 -15 2 -28 -4 -18 -2
-17 14 8 30 45 85 95 105 95 10 0 18 -3 18 -6 0 -11 -28 -33 -34 -26 -4 4 -2
-7 4 -23 8 -22 8 -35 -1 -53 -11 -19 -11 -25 1 -32 12 -7 12 -10 -3 -16 -9 -3
-17 -15 -17 -26 0 -12 -12 -24 -34 -33 -44 -18 -53 -33 -24 -37 21 -3 19 -7
-27 -53 -27 -28 -66 -58 -85 -67 -32 -16 -33 -18 -10 -18 14 0 38 7 53 15 41
21 97 30 97 15 0 -7 12 -4 33 8 46 29 106 52 111 44 2 -4 -4 -25 -14 -47 -10
-22 -16 -50 -13 -62 3 -15 0 -25 -11 -29 -9 -3 -14 -10 -11 -14 3 -4 -7 -11
-21 -14 -19 -5 -23 -10 -15 -19 11 -14 3 -31 -16 -33 -46 -4 -48 -4 -35 -12
13 -9 -89 -42 -130 -42 -12 0 -18 -3 -14 -7 4 -5 36 -6 72 -5 84 5 125 -4 117
-25 -5 -11 -1 -14 13 -10 41 12 110 17 122 9 10 -7 11 -19 3 -52 -11 -50 -17
-55 -93 -78 -36 -11 -59 -23 -62 -34 -4 -16 -13 -17 -83 -11 -107 10 -117 9
-123 -2 -3 -5 23 -20 58 -33 58 -22 78 -45 50 -55 -7 -2 3 -7 22 -11 80 -17
150 -91 117 -124 -23 -22 -115 -18 -165 7 l-42 21 0 -25 c0 -30 -10 -31 -58
-5 -80 44 -95 56 -99 80 -5 31 -13 39 -13 13 0 -12 -6 -23 -12 -25 -15 -5 27
-66 76 -110 16 -16 25 -28 20 -28 -5 0 -2 -5 6 -10 13 -9 13 -11 0 -19 -8 -6
-12 -12 -10 -13 3 -2 16 -11 30 -20 29 -18 84 -113 77 -132 -3 -7 -18 -16 -34
-19 -30 -6 -82 21 -135 71 -23 21 -28 23 -28 9 0 -22 -12 -21 -44 4 -25 20
-116 132 -116 143 0 3 9 6 19 6 11 0 22 4 26 10 9 15 29 2 49 -30 9 -17 21
-30 26 -30 5 0 -4 20 -21 44 -27 37 -29 47 -19 66 6 12 9 29 6 37 -4 9 -1 22
5 29 9 11 8 14 -2 14 -11 0 -11 2 1 10 10 6 11 10 3 10 -7 0 -13 6 -13 13 0 8
14 12 40 12 22 0 40 -4 40 -10 0 -5 4 -4 8 3 7 10 14 10 37 -2 16 -9 31 -13
34 -11 5 6 5 6 -41 33 -34 19 -40 20 -65 7 -20 -10 -30 -11 -40 -3 -21 17 -26
3 -28 -80 0 -42 -4 -83 -9 -90 -4 -6 -23 -12 -42 -12 -19 0 -49 -7 -65 -16
-27 -14 -33 -14 -47 -1 -10 8 -45 17 -79 19 l-62 4 -3 -35 c-2 -26 -9 -39 -25
-46 -26 -11 -27 -16 -12 -103 9 -50 9 -66 -1 -72 -20 -12 -8 -55 18 -58 24 -4
45 -32 34 -48 -4 -5 -19 -15 -33 -21 -22 -9 -26 -17 -22 -40 8 -50 25 -72 60
-79 18 -3 33 -11 33 -16 0 -15 24 -35 38 -30 6 2 12 -1 12 -6 0 -5 10 -12 22
-16 18 -4 20 -8 10 -18 -17 -17 -15 -29 3 -22 8 4 15 1 15 -5 0 -7 12 -22 26
-34 21 -18 27 -34 31 -80 3 -35 0 -63 -6 -71 -6 -7 -9 -20 -5 -29 3 -8 1 -18
-5 -22 -6 -3 -11 -17 -11 -31 0 -14 -4 -23 -10 -19 -12 7 -30 -34 -23 -53 3
-7 -11 -19 -33 -28 -22 -9 -47 -23 -56 -32 -17 -14 -18 -13 -19 14 0 16 -3 23
-6 17 -2 -7 -14 -13 -25 -13 -14 0 -18 -5 -14 -16 4 -10 0 -18 -13 -21 -12 -3
-17 -11 -14 -19 4 -12 -7 -19 -29 -15 -4 0 -18 -3 -32 -9 -23 -8 -24 -7 -23
18 1 15 10 34 19 42 15 13 15 17 3 27 -9 8 -16 9 -20 3 -3 -6 -1 -10 4 -10 6
0 11 -4 11 -10 0 -5 -7 -10 -15 -10 -9 0 -21 -11 -27 -25 -14 -31 -32 -33 -23
-2 6 22 6 22 -10 2 -13 -17 -18 -18 -36 -7 -11 7 -24 10 -28 7 -5 -2 -14 1
-20 9 -7 8 -20 12 -30 9 -22 -6 -36 24 -20 43 9 11 8 14 -3 14 -8 0 -19 -5
-25 -11 -16 -16 -28 8 -13 26 9 11 9 15 1 15 -6 0 -11 -4 -11 -10 0 -19 -32
-10 -37 10 -3 11 -9 20 -14 20 -4 0 -19 11 -33 25 -14 14 -29 26 -33 27 -41 7
-49 15 -43 43 1 5 -8 1 -19 -9 -12 -11 -21 -26 -21 -34 0 -8 -6 -12 -14 -9
-15 6 -92 -18 -88 -27 1 -3 -1 -6 -5 -5 -5 0 -7 7 -5 15 2 8 -4 14 -11 14 -8
0 -18 11 -21 25 -4 16 -13 25 -27 25 -11 0 -18 -4 -14 -9 3 -5 -4 -13 -16 -16
-25 -8 -42 10 -35 38 2 9 0 15 -5 11 -5 -3 -9 2 -9 10 0 9 4 16 9 16 5 0 11 9
14 19 3 14 0 20 -12 20 -31 -1 -71 8 -71 14 0 4 1 22 1 40 l2 32 7 -35 7 -35
2 36 c1 42 -19 65 -66 71 -18 2 -31 2 -28 0 3 -3 0 -11 -6 -18 -34 -42 -24
-106 23 -139 18 -12 21 -19 12 -33 -8 -13 -8 -23 4 -39 8 -13 10 -23 6 -23 -5
0 -3 -4 4 -9 12 -7 12 -12 0 -30 -17 -29 -44 -23 -41 9 l3 25 -12 -25 c-7 -14
-18 -29 -25 -33 -15 -9 -17 -46 -3 -67 5 -8 10 -11 10 -7 0 5 18 -6 40 -23 22
-17 44 -29 50 -25 5 3 18 2 27 -3 12 -6 37 -5 72 4 59 16 91 11 91 -13 0 -10
5 -13 18 -8 40 17 54 16 97 -4 25 -11 49 -21 55 -21 14 0 13 -23 -2 -38 -9 -9
-9 -15 0 -24 9 -9 12 -7 12 9 0 12 4 25 10 28 13 8 60 -43 60 -65 0 -9 6 -24
13 -34 14 -19 11 -76 -4 -76 -5 0 -9 -9 -9 -19 0 -25 -20 -38 -21 -14 0 16 -1
16 -8 -2 -5 -12 -4 -23 3 -27 10 -7 2 -12 -16 -9 -4 0 -5 -6 -2 -14 7 -17 -96
-125 -119 -125 -8 0 -19 10 -26 22 l-11 23 6 -23 c5 -21 4 -21 -20 -11 -26 12
-35 29 -16 29 18 0 11 18 -9 23 -26 6 -61 64 -61 99 0 26 49 96 50 71 0 -7 6
-13 13 -13 8 0 24 -11 37 -25 17 -19 29 -23 49 -18 45 10 52 22 49 79 -3 45
-6 53 -20 48 -9 -2 -19 0 -23 6 -3 5 -15 10 -26 10 -10 0 -19 3 -19 8 0 4 -18
7 -40 8 -22 0 -40 -4 -40 -8 0 -5 -6 -3 -14 4 -13 11 -13 15 2 26 15 11 15 12
-1 12 -9 0 -22 -9 -30 -20 -8 -11 -17 -17 -20 -13 -4 3 -2 12 5 20 6 7 8 16 4
20 -11 11 -46 -35 -46 -61 0 -22 -3 -24 -22 -17 -13 5 -27 9 -33 10 -5 1 -9
10 -8 19 1 10 0 11 -3 5 -7 -16 -34 -17 -34 -1 0 6 -3 9 -6 5 -4 -3 -12 -1
-19 6 -12 12 -37 30 -63 46 -9 6 -10 15 -3 33 8 22 7 27 -11 31 -16 5 -18 3
-9 -6 6 -6 11 -17 11 -25 0 -12 -3 -12 -15 -2 -9 7 -15 23 -13 34 2 12 -7 31
-19 44 -24 24 -31 52 -13 52 15 0 12 21 -7 42 -15 17 -15 18 0 18 14 0 15 4 5
25 -15 34 -25 31 -31 -8 -3 -22 0 -36 10 -44 13 -10 13 -15 4 -27 -15 -18 -11
-36 12 -56 11 -10 19 -34 21 -70 2 -30 5 -59 5 -63 1 -5 5 -5 11 -2 5 3 7 0 4
-8 -3 -8 -1 -18 5 -22 17 -10 13 -37 -10 -61 -12 -12 -18 -28 -14 -34 5 -7 16
2 30 26 18 30 21 44 14 62 -5 14 -7 27 -4 30 3 3 5 1 5 -4 0 -6 9 -20 21 -32
11 -12 17 -27 13 -34 -4 -6 -3 -8 3 -5 12 8 36 -17 26 -26 -3 -4 -1 -7 5 -7 7
0 12 -6 12 -14 0 -7 7 -19 15 -26 12 -10 15 -10 15 0 0 10 4 9 16 -1 15 -12
14 -15 -7 -33 -16 -12 -20 -20 -11 -23 6 -3 12 -12 13 -21 0 -9 5 -2 10 15 9
30 29 46 29 23 0 -5 -4 -10 -10 -10 -17 0 -11 -16 20 -51 16 -19 30 -42 30
-51 0 -9 5 -20 10 -23 14 -8 13 -125 -1 -125 -5 0 -8 -4 -5 -9 11 -17 -61 -61
-98 -61 -14 0 -38 13 -55 31 -47 46 -38 103 12 77 11 -5 30 -7 43 -4 32 8 32
47 0 102 -13 22 -26 53 -30 68 -8 31 -33 30 -28 -2 8 -56 -52 -12 -105 77 -26
42 -26 45 -10 72 9 16 12 29 8 29 -4 0 -12 -10 -18 -22 -9 -22 -11 -21 -23 15
-17 45 -26 47 -32 8 -3 -18 0 -28 6 -24 5 4 7 -1 3 -10 -3 -9 -2 -19 3 -22 6
-4 10 -15 10 -25 0 -11 9 -38 21 -60 13 -25 18 -47 13 -58 -4 -9 -6 -21 -5
-25 1 -5 -8 -11 -19 -14 -24 -6 -24 -7 -6 -36 22 -34 31 -97 15 -97 -9 -1 -8
-5 5 -15 13 -10 20 -28 20 -57 1 -41 0 -43 -26 -40 -25 2 -28 0 -28 -28 0 -19
-5 -30 -14 -30 -7 0 -20 -10 -29 -23 -8 -12 -18 -19 -23 -14 -4 4 -2 13 4 19
20 20 14 28 -19 28 -22 0 -32 5 -36 20 -3 11 -12 21 -19 21 -8 1 -20 2 -26 3
-33 3 -10 168 34 250 9 16 8 18 -8 11 -17 -7 -64 -15 -64 -12 1 9 31 100 43
127 15 37 21 160 8 160 -5 0 -11 -22 -15 -49 -4 -29 -14 -55 -26 -66 -11 -10
-20 -27 -20 -37 0 -11 -4 -16 -10 -13 -6 3 -7 -1 -4 -9 4 -11 0 -16 -10 -16
-10 0 -16 -9 -17 -22 0 -13 -3 -17 -6 -10 -7 19 -20 14 -28 -10 -4 -14 -8 -18
-12 -10 -10 25 -31 11 -38 -25 -6 -32 -9 -35 -15 -18 -5 15 -10 4 -15 -39 -7
-52 -5 -60 11 -69 11 -6 31 -10 47 -8 23 2 27 -1 27 -24 0 -14 -7 -28 -15 -31
-8 -4 -15 -13 -15 -21 0 -8 -6 -13 -12 -10 -7 2 -12 10 -10 17 2 10 -3 9 -20
-2 -24 -15 -53 -13 -43 3 4 5 -1 6 -10 3 -47 -19 -78 90 -51 181 9 28 27 62
40 76 l25 27 -30 6 c-38 7 -34 24 13 50 66 38 181 157 166 172 -7 7 -58 -17
-58 -28 0 -4 -6 -8 -13 -8 -7 0 -23 -9 -35 -20 -12 -12 -22 -16 -22 -11 0 13
-33 1 -43 -15 -4 -7 -14 -11 -22 -7 -9 3 -23 -1 -32 -8 -14 -13 -16 -11 -11
14 5 26 -5 37 -17 17 -10 -16 -25 -12 -19 5 7 18 -12 20 -20 3 -5 -10 -7 -10
-12 0 -5 10 -10 10 -29 -2 -12 -8 -37 -14 -56 -14 -18 1 -35 -4 -37 -10 -2 -7
-13 -12 -23 -12 -11 0 -17 -5 -14 -10 3 -6 0 -13 -8 -16 -12 -4 -13 -13 -5
-44 14 -55 38 -74 72 -59 14 7 33 23 42 37 22 34 37 16 39 -50 2 -34 -3 -58
-12 -68 -8 -8 -19 -23 -26 -33 -7 -10 -25 -20 -41 -21 -16 -2 -32 -10 -37 -17
-7 -11 -9 -10 -9 4 0 10 -4 15 -10 12 -5 -3 -10 -1 -10 5 0 7 -7 9 -15 6 -9
-3 -18 1 -21 9 -4 8 -13 15 -21 15 -33 0 -71 40 -78 80 -4 25 -12 40 -21 40
-8 0 -14 10 -14 25 0 14 -5 25 -11 25 -6 0 -9 -7 -5 -15 8 -22 -12 -18 -24 4
-13 25 -13 44 0 36 6 -3 16 -3 22 1 9 6 5 10 -12 14 -32 8 -49 64 -26 89 21
23 20 34 -4 49 -12 7 -18 17 -15 22 3 6 1 10 -4 10 -6 0 -11 5 -11 10 0 6 7
10 15 10 8 0 15 6 15 14 0 18 93 98 126 110 36 12 48 -4 45 -62 0 -13 -5 -20
-11 -17 -6 3 -10 2 -10 -4 0 -21 18 -19 38 4 12 14 17 27 11 30 -5 4 -7 11 -4
16 4 5 1 9 -4 9 -6 0 -11 5 -11 10 0 6 13 4 30 -5 23 -12 30 -12 30 -3 0 7 3
24 7 37 6 23 5 24 -32 17 -38 -8 -38 -8 -23 16 8 12 26 25 38 28 27 6 39 30
16 30 -9 0 -16 -5 -16 -11 0 -6 -6 -9 -13 -6 -7 3 -19 -4 -25 -14 -10 -15 -17
-17 -31 -10 -14 8 -23 5 -39 -9 -12 -11 -27 -20 -35 -20 -19 0 -37 -21 -37
-42 0 -10 -4 -18 -10 -18 -5 0 -10 6 -10 12 0 7 -7 2 -16 -10 -8 -12 -21 -22
-27 -22 -7 0 -18 -9 -25 -20 -7 -11 -19 -20 -26 -20 -8 0 -20 -13 -27 -29 -7
-16 -17 -27 -21 -25 -4 3 -8 -2 -8 -10 0 -8 4 -17 9 -20 14 -9 19 -54 8 -65
-6 -6 -8 -14 -4 -17 7 -8 31 15 40 39 3 9 11 17 17 17 7 0 6 -10 -4 -27 -8
-16 -17 -40 -20 -54 -7 -31 -53 -79 -75 -78 -10 0 -12 2 -3 6 20 8 14 22 -8
16 -11 -3 -20 0 -20 6 0 6 -4 11 -10 11 -5 0 -10 -7 -10 -15 0 -8 -7 -15 -15
-15 -17 0 -19 -9 -5 -30 6 -10 10 -11 10 -2 0 6 7 12 15 12 14 0 20 -12 16
-33 -1 -4 8 -26 19 -49 24 -51 24 -48 0 -48 -12 0 -20 7 -20 18 -1 15 -2 15
-15 -2 -11 -15 -18 -17 -27 -8 -8 8 -5 16 13 32 13 12 18 19 12 15 -15 -7 -18
11 -3 20 6 3 10 16 10 28 -1 19 -2 20 -10 6 -6 -11 -18 -15 -35 -12 -19 4 -27
0 -34 -18 -4 -13 -6 -30 -4 -36 3 -7 1 -13 -5 -13 -27 0 -43 15 -52 51 -6 22
-15 37 -20 34 -12 -8 -13 -35 -1 -35 5 0 11 -10 15 -22 4 -17 -4 -12 -34 20
-21 24 -43 41 -48 38 -10 -6 -40 22 -42 39 -1 6 -8 9 -15 7 -8 -1 -19 6 -24
17 -6 10 -18 21 -27 25 -13 5 -15 2 -9 -21 3 -16 13 -32 21 -36 27 -15 16 -55
-25 -93 -51 -46 -67 -91 -50 -141 7 -21 11 -39 10 -41 -1 -1 5 -10 14 -18 14
-15 19 -34 16 -63 -2 -8 2 -10 10 -6 6 5 4 -6 -7 -24 -10 -17 -24 -31 -31 -31
-7 0 -17 -9 -23 -20 -6 -11 -7 -20 -3 -20 4 0 -5 -11 -22 -24 l-29 -23 -86 71
c-47 39 -91 77 -98 84 -18 16 -32 15 -32 -3 0 -8 5 -15 11 -15 6 0 9 -6 7 -12
-3 -7 4 -20 15 -29 14 -11 18 -22 13 -35 -8 -18 -9 -18 -23 3 -16 24 -43 31
-43 13 0 -6 7 -13 15 -16 8 -4 12 -10 9 -15 -3 -5 6 -9 20 -9 14 0 30 8 35 18
10 16 12 16 25 0 7 -10 18 -18 24 -18 5 0 13 -8 16 -17 6 -15 8 -15 17 -3 7
12 10 11 15 -8 4 -12 11 -22 18 -21 6 1 24 -3 39 -9 36 -15 47 -15 47 1 0 8 3
8 9 -2 7 -11 12 -10 22 8 8 11 22 21 33 21 15 0 17 6 14 29 -2 17 -1 28 4 25
4 -3 8 2 8 10 0 9 5 16 10 16 6 0 10 11 10 24 0 14 5 28 11 31 7 5 4 15 -9 29
-28 31 -46 88 -30 97 7 4 9 11 5 15 -3 4 -14 1 -24 -7 -15 -12 -16 -12 -10 4
4 10 7 21 7 23 0 2 7 4 16 4 8 0 12 5 9 10 -4 6 -1 17 5 25 7 8 10 24 7 35 -7
26 25 46 42 26 8 -10 6 -17 -9 -31 -11 -10 -20 -24 -20 -32 0 -7 16 5 36 27
33 36 41 70 15 70 -5 0 -11 9 -14 21 -5 20 -5 20 16 2 12 -10 26 -24 30 -31 5
-7 12 -10 18 -7 5 4 9 -3 9 -14 0 -12 5 -21 10 -21 19 0 10 -49 -11 -60 -16
-9 -24 -8 -39 5 -17 15 -20 15 -44 -6 -14 -12 -26 -31 -26 -42 0 -17 1 -17 16
-2 16 16 46 13 70 -7 11 -8 66 28 85 56 10 13 29 -3 29 -25 0 -33 27 -21 34
15 5 28 10 33 26 29 14 -4 20 -13 19 -32 -1 -17 -3 -20 -6 -9 -7 27 -24 21
-20 -7 1 -13 6 -27 9 -31 8 -8 38 20 38 35 0 14 6 14 31 0 11 -5 17 -14 14
-18 -3 -5 2 -11 10 -15 8 -3 12 -11 9 -19 -3 -8 5 -25 16 -38 21 -24 21 -24
15 -1 -8 27 8 29 34 5 30 -29 30 -47 2 -60 -25 -11 -25 -11 -3 -12 12 -1 22
-6 22 -12 0 -5 -4 -7 -10 -4 -5 3 -10 -2 -10 -12 1 -14 8 -10 31 17 l30 35 -7
-30 c-3 -16 -14 -48 -24 -70 -9 -22 -15 -46 -12 -54 3 -8 -3 -20 -12 -27 -10
-7 -13 -15 -7 -18 6 -4 4 -19 -5 -42 -8 -20 -13 -41 -11 -47 2 -7 -2 -18 -10
-25 -7 -7 -13 -23 -14 -35 -1 -50 -9 -81 -23 -95 -13 -14 -14 -13 -10 5 5 20
4 20 -35 10 -43 -12 -60 -6 -44 15 6 7 22 60 37 118 16 58 32 117 36 133 10
31 -8 38 -30 12 -7 -8 -17 -15 -22 -15 -14 0 -70 -41 -64 -47 7 -7 -22 -63
-32 -63 -4 0 -13 -13 -19 -30 -8 -21 -8 -30 0 -30 17 0 -2 -14 -23 -17 -11 -2
-20 2 -20 7 0 6 -3 9 -7 9 -37 -6 -63 3 -63 21 0 25 45 99 65 107 8 3 15 10
15 16 0 15 -69 -53 -76 -75 -3 -10 -10 -18 -16 -18 -5 0 -8 7 -5 15 4 8 1 17
-5 21 -7 4 -8 3 -4 -4 4 -7 3 -12 -3 -12 -6 0 -8 -8 -5 -17 5 -15 4 -16 -5 -3
-12 17 -63 22 -73 7 -3 -6 -17 -1 -32 11 -15 11 -21 22 -15 24 7 2 4 9 -7 18
-11 9 -15 10 -10 3 4 -7 3 -13 -3 -13 -5 0 -11 5 -13 11 -2 5 -11 7 -21 4 -18
-8 -23 -25 -7 -25 6 0 10 -6 10 -14 0 -17 38 -28 43 -12 7 19 15 3 22 -41 4
-28 2 -43 -5 -43 -6 0 -8 11 -6 25 3 18 0 25 -10 25 -11 0 -14 -6 -9 -22 6
-23 6 -23 -10 -3 -9 11 -25 19 -37 17 -12 -2 -18 0 -14 7 4 6 0 11 -9 11 -11
0 -14 6 -9 25 7 27 -4 33 -24 13 -10 -10 -15 -10 -22 2 -9 13 -11 13 -20 0 -7
-11 -11 -4 -16 28 -5 35 -10 43 -24 39 -9 -2 -28 4 -41 14 -13 10 -30 19 -38
19 -8 0 -20 8 -27 18 -13 16 -15 16 -25 0 -5 -10 -19 -18 -29 -18 -25 0 -26
27 -5 96 l14 49 -19 -25 c-12 -16 -20 -20 -20 -10 0 10 -3 11 -11 3 -9 -9 -16
-8 -27 3 -8 8 -21 13 -30 9 -8 -3 -21 0 -30 7 -8 7 -18 11 -21 8 -3 -3 -7 3
-9 14 -3 12 0 16 8 11 8 -5 11 -3 8 6 -3 8 -11 13 -17 12 -6 -2 -11 2 -11 7 0
14 -37 13 -46 -1 -3 -6 -2 -14 3 -18 5 -3 9 -19 9 -36 -1 -21 -7 -31 -23 -35
-28 -7 -73 -46 -73 -64 0 -8 16 -28 36 -46 33 -28 38 -30 57 -17 19 12 29 32
43 85 2 6 19 12 38 12 26 0 35 -5 40 -22 12 -46 7 -63 -24 -76 -17 -8 -37 -27
-46 -44 -15 -30 -15 -31 17 -58 28 -23 37 -26 57 -17 12 6 25 21 27 34 3 13 7
35 10 49 4 18 10 24 21 20 9 -3 26 -6 38 -6 32 0 52 -56 30 -82 -9 -9 -25 -20
-35 -23 -11 -4 -26 -20 -34 -36 -15 -28 -15 -30 11 -54 15 -14 34 -25 44 -25
19 0 59 35 61 53 1 7 2 19 3 27 2 21 46 41 67 30 39 -21 30 -64 -23 -110 -23
-20 -30 -35 -33 -73 -3 -30 -1 -46 5 -42 6 3 10 13 10 22 0 15 2 14 18 0 39
-35 92 -10 92 43 0 16 7 36 16 44 19 20 54 21 54 2 0 -8 7 -16 15 -20 8 -3 15
-15 15 -26 0 -15 -8 -22 -30 -27 -37 -7 -43 -15 -44 -62 -1 -28 5 -40 24 -53
35 -25 59 -22 86 9 18 21 23 35 18 55 -4 20 0 29 15 37 32 18 45 13 66 -24
l19 -36 -37 -30 c-51 -42 -51 -79 -1 -102 20 -10 44 -15 54 -12 21 7 44 64 35
87 -4 10 2 22 17 32 28 20 62 21 55 2 -3 -8 1 -17 9 -20 21 -8 17 -27 -16 -70
-41 -55 -39 -77 11 -101 l41 -19 19 23 c11 14 19 39 19 62 0 47 28 69 65 49
37 -20 41 -80 5 -80 -12 0 -19 -10 -23 -36 -8 -49 -2 -58 43 -71 52 -13 70 5
70 70 0 54 18 70 61 55 38 -13 43 -45 13 -80 -43 -52 -25 -98 43 -113 26 -5
34 -3 43 16 7 12 10 39 7 60 -4 30 0 42 19 60 19 18 26 20 39 9 8 -7 15 -9 15
-4 0 5 9 -6 20 -24 l20 -33 -30 -37 c-50 -61 -33 -92 49 -92 47 0 56 16 46 83
-6 39 -4 45 19 61 26 16 27 16 51 -10 14 -15 25 -30 25 -33 0 -3 -14 -21 -31
-38 -16 -18 -25 -33 -20 -33 6 0 11 -11 11 -25 0 -30 36 -48 84 -43 25 2 32 9
40 37 7 24 6 39 -3 53 -10 17 -9 24 6 41 10 12 18 23 19 25 4 9 55 -20 64 -37
8 -16 6 -27 -10 -53 -23 -38 -26 -71 -7 -85 6 -5 30 -11 53 -12 58 -3 71 15
55 79 -11 43 -10 52 3 72 20 28 23 62 3 38 -15 -20 -39 -15 -55 11 -10 16 -10
22 2 34 8 8 19 15 25 15 6 0 11 8 11 18 0 13 -2 14 -9 4 -4 -7 -17 -14 -28
-15 -13 0 -19 -6 -16 -14 6 -15 -6 -17 -26 -4 -12 8 -12 12 -2 24 14 18 0 30
-24 21 -12 -5 -13 -9 -4 -14 6 -5 9 -15 6 -24 -6 -14 -10 -15 -29 -5 -13 7
-25 13 -28 13 -3 1 -4 9 -3 19 2 10 -1 16 -6 13 -5 -3 -12 4 -15 17 l-7 22 -9
-22 c-6 -16 -14 -21 -26 -16 -15 5 -15 7 0 15 9 5 16 22 16 38 0 27 2 29 30
24 19 -4 30 -2 30 4 0 6 14 27 31 46 17 20 28 40 24 46 -4 6 3 19 14 29 12 10
21 25 21 32 0 8 14 27 31 42 17 15 29 32 27 38 -2 7 -17 -2 -33 -20 -35 -36
-45 -39 -45 -11 0 12 7 20 16 20 10 0 14 6 11 14 -3 8 0 20 8 26 7 6 10 20 7
32 -3 15 -1 19 9 16 18 -6 34 27 37 77 5 67 23 63 24 -5 0 -27 4 -38 10 -32 6
6 10 26 10 46 0 20 4 39 9 42 5 3 5 13 -1 23 -9 18 -5 31 11 31 14 0 19 -33 8
-47 -7 -7 -8 -17 -4 -21 4 -4 10 -1 12 6 9 25 25 12 19 -15 l-7 -28 16 23 c10
13 15 32 12 42 -3 11 1 27 7 36 12 16 13 16 19 0 4 -9 7 -18 7 -21 1 -13 78
-82 103 -93 15 -7 34 -26 41 -42 l12 -30 17 35 c20 42 26 43 61 9 26 -27 35
-64 15 -64 -5 0 -8 -4 -4 -9 3 -6 -3 -14 -12 -20 -10 -6 -13 -11 -8 -12 6 -1
15 -2 20 -4 6 -1 18 -3 28 -3 9 -1 17 -9 17 -17 0 -8 5 -15 10 -15 15 0 12
-46 -4 -59 -15 -13 -52 -11 -74 3 -10 6 -12 1 -7 -27 6 -30 3 -37 -22 -54 -31
-23 -56 -18 -86 15 -14 16 -17 28 -12 53 7 30 6 32 -9 17 -21 -22 -51 -12 -84
27 -23 27 -30 30 -47 21 -11 -6 -21 -19 -21 -29 -1 -10 0 -16 3 -13 6 6 38
-24 38 -36 0 -15 29 -28 36 -16 6 9 6 -9 0 -68 -1 -7 -8 -11 -17 -10 -9 0 -19
-5 -21 -11 -7 -21 32 -15 52 7 10 11 15 28 12 39 -3 11 1 25 8 31 11 9 14 5
13 -20 -1 -17 -5 -33 -11 -37 -5 -3 -4 -9 4 -14 8 -4 18 -1 26 9 12 16 13 15
19 -5 3 -13 10 -20 15 -17 5 3 9 1 9 -5 0 -5 -4 -13 -10 -16 -5 -3 -10 -14
-10 -23 0 -13 4 -11 16 7 13 18 18 20 25 10 6 -10 9 -5 9 15 0 25 3 28 26 23
19 -3 29 1 40 19 12 18 22 22 43 18 24 -5 31 -1 52 32 13 22 46 61 72 87 41
41 45 48 26 45 -22 -3 -23 0 -21 34 5 51 -6 78 -29 78 -10 0 -19 4 -19 9 0 5
6 9 13 8 37 -1 49 4 43 19 -3 8 -2 12 4 9 6 -3 10 -1 10 4 0 6 -4 11 -10 11
-5 0 -7 7 -4 15 8 19 -1 19 -37 -2 -27 -16 -30 -16 -45 -1 -10 10 -13 21 -8
30 5 7 7 22 6 33 -2 15 -1 17 6 6 6 -7 14 -11 20 -7 5 3 12 -3 15 -14 7 -26
21 -25 36 2 10 22 11 22 6 2 -4 -14 0 -24 9 -27 18 -7 26 1 27 27 1 18 2 18 9
-4 13 -41 11 -48 -10 -43 -23 6 -26 -7 -7 -26 10 -10 8 -15 -8 -27 -18 -13
-18 -15 -2 -29 9 -8 15 -12 12 -8 -3 3 4 16 15 28 12 12 24 45 29 74 4 28 10
54 13 56 10 11 39 -8 34 -21 -3 -8 -3 -20 0 -28 11 -28 64 42 64 84 0 12 -4
18 -10 15 -5 -3 -10 1 -10 9 0 8 -4 17 -9 20 -4 3 -7 -6 -5 -19 3 -32 -6 -32
-36 0 -22 24 -23 25 -3 25 11 0 23 3 27 7 4 4 18 9 31 10 23 3 30 -5 26 -31
-1 -4 14 -5 33 -2 23 4 37 2 42 -6 11 -17 40 -104 53 -154 5 -21 22 -70 36
-109 15 -38 33 -89 39 -112 7 -23 15 -45 19 -49 11 -11 8 -44 -3 -44 -5 0 -10
6 -10 13 0 9 -2 9 -8 0 -9 -14 -89 -43 -122 -43 -26 0 -67 -20 -42 -20 7 0 10
-5 7 -10 -4 -6 -3 -10 2 -9 4 1 21 1 38 0 l29 -1 -37 -38 c-21 -21 -36 -40
-35 -43 2 -2 1 -3 -1 -2 -2 2 -9 -1 -15 -6 -6 -4 -19 -11 -30 -15 -14 -5 -17
-2 -12 9 3 8 1 15 -4 15 -6 0 -10 -7 -10 -16 0 -11 -5 -14 -17 -9 -10 4 -24 9
-31 12 -7 3 -12 0 -10 -8 2 -7 -6 -15 -17 -17 -11 -2 -23 -9 -27 -16 -4 -6 -8
2 -9 19 l-1 30 -12 -35 c-7 -19 -21 -37 -31 -39 -16 -3 -17 2 -12 38 5 42 0
50 -21 29 -7 -7 -12 -9 -12 -5 0 3 -10 -4 -23 -16 -13 -12 -22 -25 -20 -29 2
-5 -1 -8 -7 -8 -6 0 -9 -4 -6 -9 8 -12 -4 -41 -16 -41 -6 0 -8 7 -4 15 6 17
-13 65 -26 65 -4 0 -8 -11 -8 -25 0 -14 5 -25 12 -25 6 0 8 -3 5 -6 -4 -4 -13
-2 -21 5 -8 6 -18 11 -22 10 -23 -4 -36 2 -31 15 8 19 -3 28 -19 15 -10 -8
-13 -4 -11 18 2 25 27 52 50 53 16 0 6 -18 -13 -23 -25 -7 -25 -19 0 -35 17
-10 23 -9 40 8 11 11 20 26 20 33 -1 7 -6 5 -14 -5 -23 -30 -27 -20 -6 15 18
29 30 68 12 40 -4 -6 -19 -13 -34 -15 -14 -2 -33 -10 -42 -17 -9 -7 -23 -11
-31 -7 -8 3 -15 1 -15 -4 0 -6 5 -10 10 -10 6 0 10 -7 10 -15 0 -19 -14 -19
-30 0 -15 17 -30 11 -30 -13 0 -15 2 -15 10 -2 8 12 10 10 10 -10 0 -14 -5
-32 -10 -40 -8 -13 -11 -11 -16 8 -8 26 -36 29 -60 5 -23 -23 -47 -26 -40 -5
5 15 4 15 -8 0 -13 -18 -38 -25 -34 -10 4 15 -14 52 -23 47 -12 -8 -12 -55 1
-55 6 0 10 -4 10 -9 0 -4 -12 -6 -27 -3 -28 5 -27 5 10 -30 35 -33 47 -58 29
-58 -5 0 -15 -18 -22 -40 -18 -54 -4 -70 60 -70 34 0 50 4 54 16 10 26 7 53
-9 77 -13 20 -12 25 7 55 24 38 43 38 71 0 18 -24 19 -31 8 -51 -7 -13 -11
-41 -9 -62 3 -38 4 -39 42 -40 65 -3 76 3 76 43 0 19 -7 43 -16 53 -13 14 -13
21 -3 40 22 43 31 47 61 30 38 -22 41 -36 22 -94 -20 -60 -12 -68 61 -65 44 3
51 6 59 30 8 23 6 34 -13 59 -23 31 -23 31 -5 65 10 19 21 34 24 34 3 0 20 -9
38 -20 35 -22 38 -31 21 -79 -8 -24 -9 -39 -1 -57 10 -20 17 -23 52 -20 71 7
91 47 49 100 -14 18 -18 33 -13 48 14 49 36 59 70 34 15 -12 19 -27 19 -76 1
-42 5 -64 15 -70 14 -9 73 -4 93 7 14 8 8 83 -8 89 -23 9 -27 39 -11 78 17 40
41 47 49 15 3 -11 14 -23 25 -26 17 -4 19 -11 14 -49 -6 -59 17 -88 62 -78 17
3 37 11 44 16 23 19 10 86 -23 113 -16 13 0 75 20 75 22 0 65 -22 66 -34 1 -6
0 -23 -1 -38 -1 -15 7 -41 16 -58 19 -32 30 -32 87 -3 35 18 34 44 -3 86 -32
37 -36 56 -20 88 13 23 33 24 65 3 21 -14 25 -24 25 -63 0 -49 13 -71 41 -71
21 0 70 25 80 41 10 16 -7 48 -39 75 -21 18 -24 25 -18 58 9 45 24 53 65 31
24 -12 31 -22 31 -46 0 -37 26 -89 44 -89 7 0 28 10 47 23 50 35 42 71 -25
112 -12 8 -15 19 -10 48 8 47 21 53 68 33 30 -13 36 -20 36 -46 0 -36 26 -80
47 -80 21 0 71 31 78 48 8 20 -26 72 -52 78 -27 7 -35 27 -27 70 7 37 22 42
67 22 16 -8 30 -24 33 -38 11 -51 27 -80 46 -86 11 -3 23 -2 27 3 3 5 19 17
34 26 18 12 26 24 23 33 -20 49 -20 47 5 35 23 -12 23 -12 4 4 -11 9 -36 23
-57 32 -33 13 -36 18 -40 61 -3 26 -1 51 4 57 5 5 8 4 8 -3 0 -7 9 -12 19 -12
11 0 23 -4 26 -10 3 -5 14 -10 24 -10 14 0 21 -10 26 -36 3 -20 17 -47 31 -61
l25 -25 32 25 c53 40 45 91 -18 112 -27 9 -30 15 -33 58 -3 47 -3 47 28 47 45
0 66 -15 74 -51 8 -39 32 -69 57 -69 10 0 30 10 45 23 22 20 25 28 19 56 -6
26 -15 36 -50 51 -38 16 -43 23 -47 57 -3 21 -5 39 -4 40 1 0 15 3 32 6 38 6
62 -11 85 -62 24 -55 54 -62 90 -23 16 17 29 37 29 45 0 19 -40 53 -72 61 -19
4 -30 16 -38 41 -16 49 -10 59 39 60 41 1 45 -1 58 -34 31 -75 64 -89 108 -46
44 45 23 98 -43 108 -34 6 -39 11 -48 47 -6 22 -9 42 -6 45 3 3 25 5 49 5 40
0 45 -3 58 -34 8 -18 26 -41 41 -50 25 -17 27 -17 55 10 49 47 32 92 -40 111
-27 7 -37 17 -51 52 -12 32 -19 39 -23 28 -4 -12 -15 -16 -37 -13 -23 3 -35
-3 -51 -22 -13 -18 -23 -22 -27 -15 -4 7 -19 16 -33 21 -21 8 -28 7 -37 -9
-16 -26 -15 -38 2 -16 11 15 15 15 25 3 8 -10 9 -16 1 -21 -5 -3 -10 -3 -10 2
0 10 -20 -19 -20 -30 0 -4 12 0 26 10 25 16 26 16 22 -3 -2 -10 -8 -19 -15
-19 -6 0 -23 -12 -38 -27 -33 -34 -49 -35 -62 -6 -8 19 -10 20 -16 4 -5 -11
-3 -15 5 -10 7 5 9 -1 4 -19 -5 -20 -3 -25 7 -21 8 3 14 -2 14 -10 0 -8 -6
-12 -14 -9 -8 3 -13 -2 -13 -13 0 -22 -47 -80 -57 -71 -3 4 4 19 18 34 13 14
18 23 12 19 -8 -4 -13 -2 -13 5 0 8 -4 8 -15 -1 -8 -7 -15 -25 -15 -40 0 -16
-7 -30 -15 -34 -8 -3 -15 -11 -15 -17 0 -8 5 -7 16 2 14 11 15 10 12 -10 -1
-13 -12 -29 -23 -35 -11 -6 -23 -15 -27 -21 -5 -6 -8 -5 -8 3 0 9 -5 10 -19 2
-27 -14 -31 -13 -30 8 0 11 2 12 6 4 4 -10 10 -9 25 5 11 10 22 17 24 16 13
-9 19 2 19 35 l0 38 -27 -15 c-16 -9 -28 -24 -28 -34 0 -10 -5 -15 -11 -12
-12 8 -49 -22 -49 -40 0 -16 -41 -27 -55 -15 -7 6 -15 6 -20 2 -5 -5 37 83 52
107 1 2 9 -2 18 -9 11 -9 15 -9 15 -1 0 6 -7 14 -15 17 -11 5 -13 17 -8 52 3
26 10 51 14 57 5 5 9 20 9 35 0 17 -3 21 -9 12 -7 -11 -9 -11 -14 2 -4 9 -1
16 5 16 9 0 9 3 0 12 -7 7 -12 20 -12 29 0 10 -9 21 -20 24 -11 3 -20 11 -20
16 0 6 4 7 10 4 6 -3 7 1 4 9 -3 9 -12 16 -20 16 -8 0 -14 8 -14 18 0 10 -5
23 -12 30 -7 7 -8 12 -2 12 5 0 15 -5 22 -12 9 -9 15 -9 24 0 16 16 28 15 28
-1 0 -8 12 -14 30 -14 16 0 27 4 24 9 -3 4 2 8 10 8 11 0 16 -9 16 -26 0 -23
3 -25 30 -19 25 5 30 3 30 -12 0 -15 -2 -16 -10 -3 -8 12 -10 11 -10 -7 0 -25
16 -39 24 -21 5 10 7 10 12 1 3 -7 12 -9 20 -6 8 3 14 -1 14 -11 0 -9 5 -16
10 -16 6 0 10 4 10 10 0 5 7 7 16 3 9 -3 20 0 25 8 6 11 9 8 9 -8 0 -13 5 -23
11 -23 6 0 9 7 5 15 -3 8 -1 15 4 15 6 0 10 6 10 14 0 8 7 13 16 12 11 -1 22
13 31 41 13 38 13 43 -4 62 -10 12 -18 29 -18 39 0 11 -8 17 -22 17 -12 0 -31
11 -41 23 -11 12 -24 22 -30 22 -7 0 -9 7 -5 17 5 12 2 15 -10 10 -10 -4 -23
3 -35 18 -11 13 -23 21 -27 17 -4 -4 -5 7 -2 25 5 23 2 33 -10 37 -12 5 -13 9
-4 20 10 12 6 15 -18 21 -22 5 -28 11 -24 22 4 11 2 14 -5 9 -7 -4 -12 -3 -12
3 0 5 -5 22 -11 38 -7 20 -12 24 -18 14 -6 -9 -11 -10 -15 -2 -14 22 -54 11
-85 -24 -17 -20 -31 -41 -31 -47 0 -7 -5 -6 -15 2 -10 9 -15 9 -15 1 0 -6 5
-11 11 -11 8 0 8 -5 -1 -15 -7 -8 -16 -12 -21 -9 -5 3 -6 -1 -4 -8 5 -13 -38
-61 -47 -53 -1 2 -4 -7 -4 -20 -2 -26 -8 -32 105 110 24 30 51 55 60 55 19 0
71 -49 71 -67 0 -6 6 -13 14 -16 7 -3 30 -38 49 -79 42 -86 47 -92 109 -138
44 -32 63 -70 37 -70 -6 0 -8 7 -4 18 3 10 -8 3 -28 -16 -38 -37 -53 -35 -86
9 -28 38 -102 235 -95 253 3 7 -2 16 -11 20 -11 4 -19 -2 -26 -20 -5 -15 -29
-52 -53 -84 l-44 -58 21 -21 c11 -11 18 -24 14 -27 -8 -9 -72 24 -94 49 -9 9
-26 17 -38 17 -20 0 -22 -5 -20 -40 2 -32 -1 -40 -14 -40 -9 0 -23 -6 -29 -12
-10 -10 -15 -10 -21 1 -7 11 -21 8 -74 -18 -36 -18 -71 -39 -79 -48 -10 -12
-3 -11 28 5 25 13 51 19 65 16 13 -3 42 -8 63 -10 75 -8 163 -78 202 -160 26
-54 24 -143 -5 -204 -29 -62 -35 -66 -76 -65 -22 1 -43 -3 -46 -8 -10 -14 -43
7 -59 37 -10 20 -11 31 -2 51 19 42 86 29 88 -17 1 -13 2 -29 3 -35 1 -15 41
-18 41 -3 0 6 9 19 20 30 11 11 20 27 20 36 0 24 -51 105 -87 140 -35 33 -43
33 -43 0 0 -23 -45 -72 -54 -58 -3 5 6 19 19 30 33 29 31 59 -5 110 -42 56
-91 85 -130 77 -16 -4 -30 -13 -30 -21 0 -22 47 -93 98 -148 l46 -49 -23 -18
c-29 -23 -53 -24 -97 -3 -42 20 -84 87 -85 135 0 27 -2 30 -8 14 -5 -11 -6
-26 -4 -32 3 -7 -2 -13 -12 -13 -13 0 -16 -6 -13 -25 3 -13 1 -22 -3 -19 -15
9 -10 -15 9 -43 13 -21 14 -25 2 -18 -13 8 -13 6 -1 -8 7 -9 17 -15 21 -12 13
8 31 -21 24 -41 -5 -16 -4 -16 5 -4 10 13 12 13 21 0 13 -19 13 -33 0 -25 -16
10 -12 -11 5 -25 12 -10 15 -10 15 0 0 10 3 10 15 0 13 -10 13 -15 3 -21 -14
-9 -5 -22 17 -25 11 -2 13 4 9 22 -4 15 -2 24 5 24 6 0 11 -9 11 -19 0 -35 20
-34 21 1 1 25 3 27 6 10 5 -26 31 -55 54 -60 7 -2 16 -8 19 -13 3 -5 27 -7 52
-5 35 2 45 0 44 -12 0 -8 5 -17 12 -19 6 -3 12 2 12 10 0 23 31 30 46 10 13
-17 14 -17 8 0 -3 9 -1 17 5 17 18 0 13 -48 -8 -69 -25 -25 -30 -42 -20 -69 8
-20 6 -22 -18 -18 -14 3 -30 11 -34 17 -8 14 -84 -62 -99 -98 -9 -23 -40 -32
-40 -13 0 15 -37 12 -53 -5 -8 -8 -17 -11 -21 -8 -3 4 -6 -3 -6 -15 0 -13 -6
-22 -15 -22 -8 0 -15 -5 -15 -11 0 -5 4 -7 10 -4 6 3 7 -1 4 -9 -3 -9 -9 -15
-12 -14 -28 3 -41 -4 -35 -18 5 -13 2 -15 -18 -9 -32 10 -36 15 -21 24 8 5 1
8 -18 8 -16 0 -30 -4 -30 -8 0 -5 -11 -4 -24 1 -18 7 -26 5 -30 -6 -10 -25
-25 -15 -21 14 3 27 75 112 95 112 5 0 11 8 14 18 4 9 22 35 40 56 19 21 32
45 29 53 -3 7 0 20 6 27 17 21 4 66 -17 59 -14 -5 -15 -3 -4 8 10 11 18 11 44
1 40 -15 50 -7 12 10 -16 7 -37 21 -47 32 -15 17 -20 18 -27 6 -6 -9 -10 -10
-10 -3 0 6 4 14 10 18 20 12 -1 31 -30 27 -18 -3 -30 0 -30 7 0 6 -6 11 -13
11 -7 0 -14 10 -14 22 -1 13 -7 24 -13 26 -6 2 -2 11 10 19 17 12 19 18 9 29
-9 12 -15 12 -27 2 -13 -11 -15 -10 -9 4 6 17 -15 43 -26 31 -4 -3 -7 1 -7 10
0 9 -7 17 -15 17 -8 0 -15 4 -15 9 0 31 -148 0 -176 -37 -7 -9 -14 -13 -14 -8
0 18 -67 -80 -74 -109 -4 -16 -13 -33 -19 -37 -9 -6 -8 -11 3 -17 12 -9 11
-14 -8 -34 -24 -25 -28 -37 -12 -37 6 0 10 7 10 15 0 8 4 15 9 15 5 0 7 -10 3
-22 -3 -14 -2 -19 6 -14 7 4 12 3 12 -2 0 -15 47 -61 56 -54 6 6 3 -7 -13 -45
-3 -7 0 -13 6 -13 6 0 11 -5 11 -10 0 -6 -11 -3 -25 6 -21 13 -25 14 -25 2 0
-8 -5 -19 -11 -25 -18 -18 -42 12 -35 41 5 20 3 23 -14 19 -20 -5 -28 11 -10
22 5 3 -6 22 -25 41 -32 31 -50 74 -25 59 6 -3 10 3 10 14 0 12 -4 21 -10 21
-5 0 -10 5 -10 11 0 5 5 7 10 4 15 -9 12 17 -4 38 -9 11 -17 14 -20 8 -4 -6
-13 -8 -21 -5 -10 4 -12 11 -5 23 7 14 5 17 -8 15 -33 -4 -61 -16 -65 -28 -2
-6 -2 -2 0 9 3 11 5 28 4 38 0 15 3 16 15 7 12 -11 13 -8 8 19 -5 26 -3 31 12
31 11 1 36 3 56 6 32 5 37 3 32 -10 -5 -12 -2 -15 10 -10 9 3 19 17 22 30 5
19 11 23 27 18 17 -5 18 -4 6 9 -8 8 -21 13 -29 10 -8 -2 -5 2 8 8 12 7 22 18
22 25 0 7 5 16 12 20 8 5 9 -2 5 -25 -6 -28 -5 -30 8 -17 8 8 15 19 15 25 0 5
12 19 26 30 25 20 26 21 5 21 -11 0 -21 5 -21 10 0 6 7 10 15 10 8 0 24 20 36
45 12 25 25 42 31 39 5 -3 4 -11 -2 -20 -7 -7 -10 -19 -8 -26 3 -7 17 11 32
41 21 41 30 51 37 40 8 -12 10 -12 19 1 7 11 5 16 -6 18 -11 3 -14 11 -9 29 3
14 1 31 -5 38 -16 19 -8 77 10 83 12 4 13 3 2 -10 -10 -12 -10 -18 2 -27 12
-10 17 -9 28 8 17 27 28 27 28 -1 1 -22 1 -22 15 -4 13 17 14 17 36 -3 13 -12
26 -21 31 -21 4 0 8 -9 8 -21 0 -11 4 -18 10 -14 5 3 7 12 4 19 -3 8 -1 17 5
21 6 3 11 15 11 25 0 19 32 36 49 25 6 -3 8 -12 5 -19 -3 -8 -1 -17 5 -21 6
-3 11 -1 11 4 0 6 4 10 9 9 9 -3 91 79 91 91 1 10 83 46 105 46 15 0 20 7 20
25 0 14 15 50 33 81 25 45 33 72 38 130 9 116 11 199 4 199 -4 0 -7 14 -8 32
-1 23 9 41 36 70 44 47 61 76 62 106 0 12 5 22 10 22 6 0 8 13 5 30 -4 22 1
34 17 50 21 19 23 19 29 4 3 -11 8 -14 12 -7 5 8 17 7 40 -1 18 -6 57 -11 87
-11 51 0 56 2 69 30 18 37 22 75 9 75 -6 0 -6 6 2 15 10 12 9 22 -2 52 -17 46
-13 75 12 91 17 10 20 10 20 -3 0 -8 5 -15 10 -15 6 0 10 7 10 15 0 8 5 15 11
15 5 0 8 -4 4 -9 -8 -15 15 -25 28 -12 6 6 19 11 28 11 10 0 31 11 46 24 23
20 28 32 27 69 0 24 -5 53 -9 63 -4 11 -9 34 -11 52 -2 26 1 32 17 32 10 0 19
3 19 8 0 4 20 27 45 52 25 25 54 65 65 89 20 43 20 44 1 86 -11 24 -28 48 -39
54 -24 13 -35 14 -28 3 2 -4 1 -14 -3 -21 -4 -7 -9 12 -10 43 -1 47 1 55 19
61 11 4 17 11 14 17 -4 6 -2 13 3 17 5 3 18 31 29 61 18 49 19 58 6 83 -7 16
-20 31 -28 34 -8 3 -14 12 -14 20 0 9 -6 13 -15 9 -8 -3 -15 -1 -15 4 0 6 4
10 8 10 4 0 8 9 8 20 0 11 -4 20 -8 20 -4 0 -8 -4 -8 -10 0 -5 -5 -10 -11 -10
-8 0 -8 4 0 14 8 10 8 21 1 41 -6 15 -8 30 -5 33 3 3 5 0 5 -8 0 -10 3 -10 17
1 15 13 15 12 4 -9 -7 -13 -10 -26 -8 -28 8 -8 67 102 66 122 0 14 -2 15 -6 4
-10 -25 -53 -65 -53 -48 0 8 5 19 12 26 9 9 8 12 -4 12 -13 0 -18 14 -23 55
-4 30 -11 58 -16 60 -16 11 -61 -8 -68 -28 -4 -12 -10 -16 -14 -10 -4 6 2 21
13 33 19 22 25 90 7 90 -5 0 -5 5 -2 10 3 6 -4 10 -16 10 -21 0 -22 3 -17 78
3 42 3 67 1 55 -6 -31 -23 -29 -23 2 0 14 -3 24 -7 23 -5 -2 -8 0 -8 4 0 4
-11 15 -24 24 -18 13 -25 14 -31 4 -6 -9 -9 -9 -15 0 -4 6 -13 9 -20 6 -7 -2
-16 2 -19 10 -10 26 -7 44 8 38 13 -5 46 50 46 78 0 7 -8 -2 -17 -21 -16 -32
-17 -33 -26 -13 -5 11 -7 31 -4 44 10 38 8 43 -13 44 -11 1 -20 -5 -20 -12 0
-7 -4 -15 -8 -18 -8 -5 -12 17 -12 64 0 19 -3 21 -12 12 -17 -17 -28 -15 -28
7 0 10 -7 21 -14 24 -11 4 -13 1 -9 -11 6 -15 5 -15 -11 -3 -9 8 -14 21 -11
30 3 9 -6 3 -19 -14 -14 -16 -28 -37 -31 -47 -3 -9 -12 -19 -20 -22 -13 -5
-17 0 -14 20 0 3 -7 11 -17 18 -9 7 -14 18 -10 25 4 6 4 11 -1 10 -20 -3 -34
2 -28 11 4 6 11 7 17 4 6 -4 14 0 19 7 14 22 11 39 -6 33 -9 -4 -15 0 -15 9 0
9 -9 19 -21 22 -14 5 -19 13 -16 26 6 22 3 23 -23 9 -15 -8 -17 -7 -12 12 4
18 2 20 -21 16 -15 -3 -27 -1 -27 4 0 10 -25 38 -33 38 -3 0 -8 -7 -11 -16z
m-134 -1904 c-2 -8 3 -10 14 -6 13 5 15 2 11 -13 -3 -12 1 -22 9 -25 9 -3 14
-20 14 -43 0 -35 1 -36 17 -20 15 15 16 23 6 59 -20 75 4 63 36 -19 31 -77 31
-77 26 -30 -5 48 1 56 24 35 11 -11 13 -10 9 2 -3 8 -14 16 -26 18 -29 4 -28
14 4 29 27 13 44 10 44 -8 0 -13 51 -122 60 -129 13 -9 27 -45 23 -57 -3 -9
-10 -9 -29 -1 -34 16 -39 5 -11 -26 21 -23 47 -92 47 -125 0 -14 -29 -41 -44
-41 -20 0 -97 71 -107 98 -5 13 -15 22 -21 20 -13 -5 -45 31 -68 75 -10 21
-11 33 -3 45 8 14 6 17 -13 18 -16 1 -23 -5 -27 -22 -2 -13 -1 -21 3 -19 4 2
6 -16 5 -40 0 -25 3 -45 9 -45 5 0 7 -2 5 -5 -3 -2 -14 -2 -26 1 -15 4 -20 11
-15 22 5 15 3 15 -10 4 -15 -12 -17 -8 -22 32 -3 25 -9 67 -12 92 -4 37 -2 50
14 68 11 11 22 34 26 49 4 16 12 27 19 24 7 -2 11 -10 9 -17z m-307 -1550 c3
-5 12 -7 19 -4 7 3 28 -12 46 -32 29 -33 32 -42 27 -83 -2 -25 -8 -53 -11 -62
-6 -13 1 -18 34 -23 47 -7 85 -29 96 -54 3 -9 8 -39 9 -67 2 -57 -17 -97 -42
-88 -10 4 -14 2 -10 -4 4 -6 -2 -22 -12 -34 -16 -20 -22 -22 -33 -11 -11 11
-9 17 10 32 12 10 22 24 22 30 0 23 -63 141 -83 155 -21 15 -76 2 -78 -18 -3
-24 3 -52 12 -62 5 -5 9 -17 9 -27 0 -10 18 -38 40 -60 59 -62 52 -75 -40 -69
-36 3 -100 72 -100 110 0 16 -6 32 -12 34 -9 4 -8 6 2 6 8 1 22 19 31 40 l17
39 -34 5 c-81 13 -128 84 -101 150 17 39 66 79 117 94 46 14 58 15 65 3z
m-1459 -120 c9 0 21 -6 29 -13 11 -11 10 -16 -7 -26 -11 -7 -17 -19 -14 -27 3
-8 1 -14 -5 -14 -16 0 -39 27 -31 35 4 5 1 5 -6 1 -7 -4 -10 -17 -6 -32 4 -14
2 -24 -5 -24 -6 0 -11 6 -11 13 0 8 -4 7 -10 -3 -14 -22 -12 -43 3 -37 8 3 20
1 27 -3 11 -7 11 -15 -4 -48 -10 -21 -17 -45 -15 -53 1 -8 -3 -25 -9 -39 -49
-115 -72 -176 -72 -191 0 -23 0 -23 -67 -2 -61 19 -61 15 -8 128 68 143 85
188 80 209 -5 15 -4 17 3 7 7 -10 18 3 42 50 18 35 37 70 42 77 13 16 -4 16
-20 0 -9 -9 -12 -9 -12 0 0 6 8 15 17 21 13 7 21 4 31 -10 7 -10 20 -19 28
-19z m27 -300 c21 -23 37 -50 37 -63 0 -13 3 -27 7 -31 10 -10 12 -36 3 -36
-4 0 -3 -15 2 -34 16 -50 6 -66 -41 -66 -22 0 -43 5 -46 10 -3 6 -14 10 -23
10 -30 0 -92 21 -92 31 0 5 12 7 28 3 58 -13 66 -10 73 21 11 49 10 155 -1
176 -19 34 12 22 53 -21z m1387 -145 c0 -14 5 -25 10 -25 6 0 10 5 10 11 0 6
8 9 18 7 10 -3 23 1 30 9 15 16 36 18 26 2 -4 -8 0 -9 15 -4 12 4 21 2 21 -4
0 -6 -8 -11 -17 -11 -19 0 -46 -46 -37 -61 3 -5 -1 -6 -9 -3 -8 3 -18 0 -22
-6 -5 -8 -13 -6 -28 7 -19 17 -20 17 -14 0 5 -14 2 -16 -21 -12 -15 3 -21 2
-14 -1 6 -3 12 -12 12 -20 0 -10 -5 -12 -12 -7 -7 4 -20 8 -28 8 -15 0 -28 45
-13 45 13 0 12 104 -1 113 -6 5 -1 5 12 2 14 -4 22 -2 22 6 0 7 9 3 20 -9 11
-12 20 -33 20 -47z"/>
<path d="M3783 1270 c-13 -5 -23 -16 -23 -24 0 -19 44 -115 64 -139 17 -22 64
-20 79 4 14 23 -17 105 -54 142 -30 29 -33 30 -66 17z"/>
<path d="M1406 4667 c-16 -12 -16 -13 3 -13 11 0 17 4 14 9 -3 5 0 8 6 6 7 -3
12 -7 11 -9 -1 -3 10 -28 24 -56 18 -35 26 -68 26 -102 0 -35 4 -52 15 -56 8
-3 15 -12 15 -21 0 -8 4 -15 9 -15 10 0 25 -56 23 -83 -1 -13 4 -17 15 -15 17
3 63 -50 63 -71 0 -8 13 -16 35 -21 6 -1 16 -6 23 -12 9 -8 16 -6 26 7 12 17
15 16 31 -18 9 -20 22 -37 27 -37 5 0 26 -16 46 -35 20 -19 40 -35 45 -35 4 0
8 -17 8 -37 1 -22 3 -30 6 -18 3 11 10 26 15 32 7 9 -8 30 -53 75 -35 35 -72
74 -82 87 -13 16 -22 20 -29 13 -15 -15 -64 11 -73 37 -3 11 -20 33 -38 49
-40 35 -54 59 -62 106 -4 20 -11 36 -15 36 -4 0 -17 39 -30 86 -28 109 -60
143 -104 111z"/>
<path d="M2061 4268 c-27 -10 -27 -44 -1 -51 12 -3 33 1 48 9 35 18 56 18 98
-2 18 -9 58 -24 89 -33 31 -10 55 -22 55 -26 -2 -12 31 -24 47 -18 18 7 -16
63 -37 63 -9 0 -20 3 -23 7 -4 3 -24 8 -44 10 -21 2 -40 7 -43 11 -21 29 -141
48 -189 30z"/>
<path d="M5487 4061 c-43 -22 -60 -26 -96 -21 -37 6 -44 4 -49 -12 -2 -10 -8
-18 -13 -18 -5 0 -9 -7 -9 -16 0 -13 3 -14 14 -5 18 15 26 3 28 -44 1 -19 7
-40 15 -46 7 -6 13 -19 14 -28 0 -11 2 -12 6 -3 4 10 20 -1 50 -33 34 -36 42
-52 37 -68 -6 -20 -4 -19 19 6 28 29 31 30 89 27 49 -2 82 29 68 65 -5 14 -6
25 -2 25 4 1 -6 8 -21 16 -16 9 -31 13 -34 10 -4 -3 -12 -1 -20 5 -10 9 -13 8
-13 0 0 -28 -115 -53 -147 -33 -10 6 -8 12 5 24 9 8 25 25 35 37 15 19 25 21
56 16 51 -8 96 25 86 64 -15 59 -48 68 -118 32z"/>
<path d="M1900 4060 c0 -5 7 -10 15 -10 8 0 15 -6 15 -13 0 -8 18 -28 40 -46
22 -17 40 -40 41 -49 0 -11 2 -13 6 -4 3 9 15 0 33 -25 19 -27 29 -55 33 -97
4 -38 13 -66 26 -80 11 -11 25 -34 31 -51 12 -32 5 -95 -10 -95 -6 0 -10 -6
-10 -14 0 -8 -18 -32 -39 -53 -29 -27 -41 -48 -43 -73 -2 -23 1 -35 10 -35 7
0 16 -6 21 -13 8 -13 81 -30 81 -18 0 4 -11 11 -24 16 -14 5 -25 19 -29 35 -5
31 4 75 16 74 12 0 55 55 66 84 9 23 7 52 -6 87 -4 8 -5 21 -4 28 1 6 -5 12
-14 12 -22 0 -42 52 -50 133 -4 37 -11 67 -16 67 -5 0 -9 7 -9 15 0 9 -6 15
-12 13 -7 -1 -29 13 -49 32 -47 47 -101 90 -111 90 -4 0 -8 -4 -8 -10z"/>
<path d="M4065 3966 c-33 -43 -100 -95 -126 -96 -8 0 -24 -8 -35 -18 -10 -10
-26 -16 -34 -14 -16 3 -59 -23 -50 -31 3 -2 18 -7 33 -11 20 -5 27 -3 22 4 -9
15 26 40 43 31 19 -11 94 28 88 45 -3 8 -2 14 2 15 4 0 14 2 22 3 20 4 60 -11
60 -23 0 -16 -31 -42 -42 -35 -6 4 -8 2 -5 -3 9 -14 -22 -40 -58 -49 -35 -8
-55 -22 -55 -37 0 -7 4 -7 12 1 7 7 18 12 26 12 12 0 12 -3 2 -15 -11 -13 -2
-15 69 -15 79 0 80 1 64 19 -10 10 -20 18 -23 17 -16 -3 -9 21 9 30 35 18 38
27 6 20 -29 -7 -29 -7 -9 8 19 13 32 14 103 2 70 -11 80 -11 68 1 -8 8 -40 18
-71 22 -31 4 -61 12 -66 17 -5 5 -12 38 -15 74 -4 35 -7 65 -8 66 -1 1 -16
-17 -32 -40z"/>
<path d="M938 3975 c2 -14 9 -25 14 -25 6 0 7 -7 4 -16 -3 -8 -2 -13 3 -9 5 3
12 -9 16 -27 11 -53 35 -98 53 -98 20 -1 58 -27 50 -36 -4 -3 -18 2 -32 11
-16 11 -35 15 -50 11 -16 -4 -29 1 -42 15 -21 23 -66 49 -86 49 -7 0 -1 -7 12
-16 14 -10 41 -32 61 -51 33 -31 39 -33 58 -21 19 11 26 10 59 -9 21 -12 36
-29 36 -38 -1 -9 1 -14 4 -11 3 3 11 1 19 -5 9 -9 13 -8 13 0 0 18 21 13 57
-15 18 -14 33 -20 33 -14 0 6 4 9 9 5 5 -3 12 -1 16 5 3 5 -1 10 -9 10 -16 0
-83 37 -104 57 -7 7 -18 13 -24 13 -5 0 -8 7 -4 15 3 10 -8 20 -39 34 -24 10
-51 31 -60 45 -21 31 -14 59 12 49 10 -4 -4 17 -32 45 -27 29 -50 52 -51 52
-1 0 1 -11 4 -25z"/>
<path d="M827 3731 c3 -11 16 -29 29 -42 13 -12 24 -29 24 -36 0 -8 7 -24 16
-38 12 -18 13 -28 4 -44 -11 -22 -30 -28 -30 -11 0 6 -12 10 -27 10 -34 0 -21
-14 29 -29 20 -7 42 -19 48 -27 16 -18 30 -18 30 0 0 8 6 16 13 19 14 4 86
-38 104 -62 14 -19 6 -34 -13 -27 -8 3 -14 1 -14 -4 0 -10 71 -32 79 -25 2 3
-3 11 -11 18 -21 16 -32 54 -17 62 6 5 -4 15 -28 26 -74 36 -156 94 -164 117
-8 22 4 31 16 12 3 -5 14 -10 23 -10 9 0 -5 13 -31 30 -26 16 -52 41 -57 55
-11 29 -31 34 -23 6z"/>
<path d="M3608 3325 c-3 -3 2 -31 10 -62 9 -39 11 -58 4 -61 -7 -2 -8 -12 -2
-26 4 -12 6 -40 4 -62 -2 -21 -5 -68 -8 -105 -6 -82 -21 -123 -41 -115 -13 4
-13 2 -5 -14 8 -16 7 -27 -7 -50 -19 -34 -43 -47 -43 -24 0 8 -4 12 -10 9 -5
-3 -10 -17 -10 -31 0 -16 4 -23 11 -18 7 4 9 0 5 -14 -4 -13 -1 -22 8 -25 8
-3 18 -22 22 -41 3 -20 11 -36 16 -36 6 0 8 7 4 15 -4 10 1 15 14 15 23 0 24
-4 10 -31 -6 -10 -17 -19 -26 -19 -8 0 -26 -7 -40 -17 -20 -13 -33 -14 -62 -7
-31 7 -41 6 -59 -10 -13 -11 -23 -25 -23 -32 0 -20 -35 -34 -67 -28 -29 6
-105 -25 -119 -48 -4 -6 -10 -5 -15 3 -4 7 -11 10 -16 6 -4 -4 6 -19 22 -32
28 -22 29 -24 11 -31 -12 -5 -30 -1 -48 9 -17 9 -38 17 -48 17 -10 0 -22 5
-25 10 -7 12 -25 4 -25 -11 0 -5 8 -9 18 -9 20 0 64 -29 45 -30 -7 0 -13 -5
-13 -10 0 -6 19 -8 48 -5 56 5 82 13 82 26 0 5 7 9 15 9 9 0 15 9 15 24 0 28
43 60 71 53 10 -3 19 -1 19 4 0 13 30 -1 30 -15 1 -30 30 -49 79 -51 72 -3
153 -59 172 -118 7 -23 21 -55 31 -72 40 -67 12 -85 -48 -32 -74 64 -16 -9 92
-116 106 -106 129 -124 117 -89 -10 27 -64 93 -72 87 -5 -2 -14 7 -21 20 -7
14 -17 25 -21 25 -4 0 -5 9 -2 20 3 11 10 20 16 20 6 0 8 3 4 6 -3 4 1 13 9
21 8 9 13 22 10 29 -3 8 -9 21 -12 29 -5 11 -1 14 12 9 14 -4 13 -1 -5 14 -25
21 -24 56 2 46 8 -3 21 2 30 10 8 9 26 15 39 15 13 -1 31 2 41 6 12 5 17 3 17
-9 0 -9 -6 -19 -14 -22 -8 -3 -17 -13 -20 -21 -6 -14 -4 -14 11 -2 10 8 27 22
38 32 25 23 90 57 109 57 7 0 17 7 20 16 9 25 7 86 -3 80 -21 -13 -59 13 -63
42 -4 29 -3 30 29 25 25 -4 33 -2 33 10 0 8 -7 17 -15 21 -8 3 -15 1 -15 -4 0
-6 -4 -10 -10 -10 -5 0 -10 15 -10 33 1 30 1 31 15 13 8 -11 15 -15 15 -9 0 6
3 20 7 30 3 10 3 15 -2 11 -4 -4 -14 -3 -22 3 -17 15 -17 79 0 79 12 0 77 76
77 91 0 4 -4 11 -10 14 -6 3 -10 -5 -10 -19 0 -63 -110 -91 -287 -73 -51 5
-61 4 -57 -8 3 -8 12 -11 22 -8 12 5 14 2 9 -11 -4 -9 -3 -15 1 -12 13 8 5
-124 -8 -139 -6 -8 -18 -11 -25 -9 -8 3 -20 -4 -27 -15 -7 -12 -19 -21 -27
-21 -8 0 -23 -7 -33 -17 -17 -15 -18 -14 -12 33 3 27 8 60 11 74 7 32 12 143
6 137 -2 -3 -6 -18 -7 -33 -2 -16 -4 -32 -5 -36 0 -5 -8 -8 -17 -8 -12 0 -15
6 -10 26 6 21 4 25 -8 21 -21 -8 -21 22 -1 37 15 11 71 157 77 199 1 12 -1 28
-6 35 -4 7 -3 19 3 26 6 7 10 58 10 118 0 57 1 109 3 114 4 11 -27 56 -34 49z
m327 -579 c17 -12 17 -18 7 -72 -7 -32 -13 -72 -14 -89 -2 -22 -8 -30 -20 -29
-14 1 -18 -6 -18 -38 0 -51 -15 -78 -44 -78 -36 0 -50 25 -50 90 -1 55 -2 57
-19 43 -9 -9 -20 -13 -23 -10 -4 4 -8 45 -9 93 -2 91 2 99 45 92 22 -3 22 -3
-4 -31 -14 -15 -26 -32 -26 -38 0 -16 19 -10 30 11 6 11 15 18 21 15 5 -4 9 3
9 15 0 15 5 20 18 18 14 -3 17 -13 15 -53 -3 -54 2 -51 12 7 5 35 27 68 44 68
4 0 16 -6 26 -14z"/>
<path d="M5537 3221 c-11 -52 -8 -88 7 -104 15 -15 16 -33 2 -55 -5 -8 -4 -18
3 -25 7 -7 7 -14 -1 -24 -6 -8 -12 -27 -13 -44 -2 -37 31 -49 69 -24 26 18 76
14 76 -5 0 -14 74 -12 88 2 7 7 12 27 12 45 0 23 5 33 15 33 8 0 15 7 15 15 0
8 -4 15 -10 15 -5 0 -10 -4 -10 -10 0 -17 -29 -11 -51 11 -13 13 -24 17 -28
11 -17 -28 -141 -19 -141 11 0 14 27 39 61 58 20 10 25 9 37 -10 10 -14 25
-21 46 -21 47 1 66 20 66 69 0 31 -5 43 -17 48 -10 4 -22 11 -26 17 -6 8 -10
7 -14 -2 -2 -6 -9 -9 -14 -6 -6 3 -16 0 -24 -6 -14 -12 -71 -9 -109 6 -11 4
-16 0 -17 -12 -1 -11 -4 -5 -8 11 l-7 30 -7 -34z"/>
<path d="M1649 2788 c-7 -18 -17 -64 -23 -103 -10 -65 -13 -70 -36 -70 -23 -1
-25 -4 -23 -40 l3 -40 -15 30 -14 30 -11 -32 c-7 -18 -16 -30 -21 -27 -14 8
-10 -19 7 -41 9 -13 12 -30 8 -49 -5 -22 -3 -27 7 -21 9 6 11 3 6 -9 -4 -10
-7 -21 -7 -25 0 -3 -17 -5 -37 -3 -32 3 -42 10 -63 44 -14 23 -35 56 -47 75
-13 18 -30 47 -38 64 -12 23 -21 29 -36 24 -15 -5 -19 -2 -19 19 0 24 -2 25
-22 14 -13 -7 -27 -19 -31 -26 -5 -7 -12 -10 -18 -7 -5 4 -11 0 -14 -7 -3 -7
-21 -14 -41 -16 -47 -3 -58 -10 -43 -28 15 -18 70 -10 119 18 33 19 34 19 48
1 7 -10 19 -17 27 -15 8 1 16 -10 20 -28 4 -17 10 -28 15 -25 4 3 13 -1 19 -9
9 -11 9 -15 -1 -19 -10 -4 -11 -7 0 -18 9 -10 12 -10 12 0 0 22 20 1 51 -55
27 -46 33 -52 50 -44 14 8 23 6 39 -10 11 -11 20 -15 20 -9 0 15 50 -38 51
-54 0 -7 4 -3 8 8 8 19 8 19 15 -2 4 -12 2 -31 -3 -42 -8 -13 -8 -22 -1 -26 6
-3 14 4 19 17 9 22 9 22 24 -12 9 -22 12 -39 6 -46 -5 -6 -6 -14 -2 -18 4 -4
12 7 18 25 l11 32 27 -54 c16 -30 26 -47 24 -39 -3 11 4 15 27 15 17 0 37 -4
44 -8 6 -5 12 -5 12 -1 0 4 13 -11 30 -32 16 -22 41 -50 54 -64 13 -14 27 -35
30 -46 9 -31 -20 -57 -55 -50 -23 4 -26 2 -22 -14 3 -11 10 -20 15 -20 5 0 6
5 3 10 -3 6 -1 10 4 10 6 0 11 -3 11 -7 1 -5 12 -21 26 -38 20 -23 23 -25 14
-7 -6 13 -10 25 -8 27 11 9 74 39 81 37 4 -1 7 3 7 9 0 7 9 9 23 5 17 -4 25 0
32 17 6 12 20 23 33 25 13 2 20 8 16 14 -4 6 0 16 9 23 10 7 13 16 7 25 -7 11
-11 8 -19 -12 -11 -29 -31 -46 -31 -27 0 8 -7 6 -19 -5 -11 -10 -24 -15 -30
-11 -6 3 -9 0 -5 -8 3 -8 -2 -17 -10 -20 -9 -4 -17 1 -21 14 -7 21 -20 25 -30
9 -8 -13 -25 -13 -25 0 0 5 17 14 38 20 46 14 114 60 119 80 3 9 -3 7 -14 -6
-25 -30 -56 -44 -97 -44 -37 0 -46 6 -101 71 -33 39 -59 53 -92 50 -15 -2 -23
3 -23 12 0 8 -13 20 -30 26 -31 10 -39 26 -17 34 7 3 5 6 -5 6 -24 1 -23 22 2
28 11 3 20 10 20 15 0 5 -9 6 -21 3 -18 -6 -20 -4 -14 16 7 21 6 22 -9 10 -17
-14 -29 -10 -32 12 -2 16 71 23 81 7 10 -16 23 -11 19 8 -5 22 29 67 45 58 6
-4 9 -12 6 -17 -10 -15 2 -10 16 8 10 11 10 14 2 9 -22 -12 -14 17 12 49 30
36 36 31 25 -20 -7 -33 -7 -37 4 -23 9 13 16 14 24 6 8 -8 15 -2 26 23 12 28
15 30 15 12 1 -12 -4 -25 -9 -28 -8 -5 -8 -11 -1 -19 7 -9 7 -16 -1 -24 -8 -8
1 -10 33 -7 31 3 39 2 29 -5 -12 -8 -11 -10 7 -10 25 0 93 62 93 86 0 10 3 14
6 11 4 -3 15 4 26 18 15 19 25 23 53 18 51 -8 123 6 144 28 19 20 40 11 26
-11 -3 -5 -2 -10 4 -10 5 0 14 7 19 16 11 19 41 15 55 -8 14 -22 -7 -48 -39
-48 -12 0 -26 -5 -30 -12 -13 -21 60 1 79 23 24 30 21 69 -9 103 -23 26 -29
28 -46 17 -11 -7 -22 -10 -25 -7 -3 3 -14 1 -24 -4 -12 -7 -19 -6 -21 2 -3 7
-15 4 -35 -11 -35 -26 -66 -25 -72 4 -4 25 -23 38 -33 22 -12 -19 -25 8 -43
90 -16 71 -17 73 -47 73 -17 0 -28 -3 -24 -7 4 -4 15 -8 24 -8 15 0 17 -12 17
-80 0 -77 -1 -80 -22 -77 -17 2 -21 -1 -17 -12 3 -8 1 -23 -5 -33 -10 -17 -10
-17 -11 0 0 10 -4 16 -10 12 -5 -3 -7 -11 -4 -19 3 -7 -1 -26 -7 -42 -7 -16
-13 -37 -14 -47 -6 -58 -45 -13 -45 53 0 52 -7 65 -26 49 -27 -22 -36 -1 -49
114 -9 78 -25 62 -26 -26 0 -53 -3 -66 -9 -49 -10 24 -22 30 -19 10 5 -39 -2
-57 -23 -60 -13 -2 -24 -11 -26 -23 -2 -11 -11 -28 -20 -37 -9 -11 -11 -18 -4
-18 7 0 4 -8 -5 -18 -10 -10 -20 -17 -22 -15 -2 2 -13 -5 -23 -14 -17 -15 -20
-15 -28 -3 -13 19 -12 52 0 85 9 24 8 25 -11 14 -11 -6 -22 -9 -24 -7 -4 4 13
254 20 296 3 17 4 32 1 32 -2 0 -10 -15 -17 -32z"/>
<path d="M3345 2691 c-22 -43 -66 -52 -237 -51 -86 1 -102 -2 -148 -26 -49
-26 -51 -26 -78 -8 -37 25 -39 25 -197 25 -169 0 -155 1 -155 -12 0 -5 4 -8 9
-4 6 3 14 -2 19 -11 5 -9 12 -15 15 -15 20 3 28 0 22 -8 -3 -5 0 -13 6 -17 8
-5 10 1 7 18 -4 21 -1 24 28 26 43 3 81 -13 89 -37 3 -12 13 -21 21 -21 8 0
14 -9 14 -21 0 -11 4 -17 10 -14 6 4 17 1 25 -5 16 -14 21 0 6 15 -5 6 -11 23
-13 40 -2 20 -9 31 -23 34 -17 3 -18 1 -6 -13 8 -10 9 -16 3 -16 -14 0 -34 35
-25 44 13 13 53 6 53 -9 0 -8 5 -15 10 -15 6 0 10 5 10 10 0 16 38 12 48 -5 4
-9 18 -17 30 -18 15 -1 22 -8 22 -21 0 -11 3 -16 6 -13 4 3 16 0 28 -8 11 -8
30 -15 41 -14 11 0 14 3 8 6 -7 2 -13 12 -13 21 0 15 -2 15 -10 2 -8 -12 -11
-13 -22 -2 -11 11 -8 18 16 39 27 23 30 24 36 7 6 -16 7 -16 13 -1 7 18 37 24
37 7 0 -5 5 -10 11 -10 5 0 7 5 4 10 -4 6 5 10 19 10 28 0 35 -17 11 -26 -17
-7 -21 -34 -5 -34 6 0 10 6 10 14 0 8 9 18 20 21 11 3 20 11 20 16 0 5 4 9 9
9 15 0 24 -41 12 -53 -16 -16 -14 -32 3 -18 7 6 26 8 42 5 28 -5 29 -5 29 38
0 37 3 43 23 46 16 2 22 -2 22 -15 0 -12 13 -3 45 31 25 27 45 55 45 63 0 21
-8 15 -25 -16z"/>
<path d="M4844 2549 c-15 -17 -15 -18 12 -24 55 -11 99 -39 102 -65 2 -13 10
-33 18 -44 19 -28 18 -33 -8 -30 -34 4 -34 4 -20 13 9 5 -6 10 -40 14 -29 3
-59 7 -67 9 -8 2 -14 -7 -16 -22 -2 -14 -5 -31 -7 -39 -3 -12 35 -29 237 -105
11 -4 36 -14 55 -21 19 -8 52 -19 72 -25 20 -6 42 -18 50 -27 7 -9 9 -14 3
-11 -5 3 -11 -5 -11 -19 -1 -13 -10 -31 -20 -38 -16 -12 -21 -12 -31 1 -6 9
-14 11 -17 6 -4 -6 -21 -3 -44 8 -20 10 -54 21 -75 25 -21 4 -45 14 -52 22 -8
8 -15 11 -15 7 0 -5 -5 -3 -12 4 -7 7 -21 12 -31 12 -10 0 -26 9 -35 20 -13
16 -33 21 -89 25 -67 4 -73 3 -73 -15 0 -11 7 -21 15 -21 28 -3 33 -4 41 -11
4 -5 18 -8 30 -8 13 0 26 -5 29 -10 4 -6 11 -8 16 -5 5 4 9 -2 9 -11 0 -10 3
-14 7 -11 3 4 12 -1 20 -11 12 -15 12 -15 7 0 -7 21 23 19 37 -3 5 -8 9 -11 9
-7 0 4 21 -2 46 -12 25 -11 55 -20 67 -20 18 0 19 -2 7 -10 -17 -11 -15 -11
55 -13 44 -2 50 -5 53 -24 2 -13 -1 -23 -6 -23 -15 0 1 -53 17 -58 8 -3 11 0
7 7 -4 6 -2 11 3 11 6 0 11 11 11 23 0 30 10 40 27 26 18 -16 16 -29 -4 -29
-17 -1 -17 -1 -1 -10 15 -9 15 -13 2 -38 -7 -15 -14 -33 -14 -39 0 -7 -4 -13
-10 -13 -5 0 -10 9 -10 19 0 31 -17 33 -26 3 -11 -37 -13 -72 -3 -67 4 3 5 15
2 26 -4 16 -2 20 8 17 8 -2 15 -14 17 -26 2 -12 7 -22 12 -22 4 0 6 -10 3 -22
-5 -19 -3 -21 7 -11 12 11 16 34 19 118 1 21 4 26 10 16 18 -29 32 0 26 53 -6
43 -3 56 14 76 l20 25 1 -25 c1 -17 6 -8 15 25 8 28 14 51 15 53 0 1 -4 2 -10
2 -5 0 -10 -8 -10 -18 0 -25 -35 -58 -45 -42 -5 8 -12 6 -25 -5 -17 -16 -18
-15 -4 25 16 45 10 111 -10 109 -16 -2 -56 12 -56 20 1 17 21 36 41 36 12 0
24 6 26 13 5 13 1 14 -72 12 -89 -2 -115 -5 -115 -12 0 -5 -5 -8 -11 -8 -6 0
-8 7 -5 16 5 14 4 15 -8 5 -21 -18 -39 19 -27 52 10 26 -2 102 -20 124 -6 7
-8 17 -4 23 3 5 1 10 -6 10 -7 0 -20 7 -30 16 -26 23 -85 25 -105 3z"/>
<path d="M5533 2525 c5 -37 4 -46 -4 -38 -19 19 -40 4 -33 -23 6 -25 -10 -35
-19 -11 -7 20 -27 -6 -37 -47 -6 -29 -5 -39 6 -43 11 -4 10 -11 -7 -34 -11
-16 -19 -35 -16 -42 2 -6 12 3 21 21 14 28 20 31 32 21 10 -8 12 -15 4 -23
-23 -23 -11 -33 30 -23 36 10 41 9 65 -17 20 -22 32 -27 62 -24 32 3 38 7 45
37 13 49 -10 71 -77 71 -45 0 -55 4 -85 35 -38 39 -35 46 29 64 41 12 45 11
70 -13 29 -28 88 -36 96 -13 25 70 1 101 -74 98 -40 -1 -55 4 -82 26 l-32 28
6 -50z"/>
<path d="M947 2399 c51 -10 79 -29 116 -81 38 -54 37 -108 -3 -146 -16 -16
-30 -34 -30 -39 0 -6 -20 -21 -44 -34 -42 -22 -46 -22 -93 -8 -38 12 -52 22
-68 51 -24 45 -59 67 -83 51 -23 -14 -21 -37 3 -41 31 -6 38 -18 20 -35 -23
-24 -75 -1 -75 32 0 13 -8 17 -35 17 -27 -1 -35 -5 -35 -20 0 -13 5 -17 20
-13 12 3 24 -1 30 -11 5 -10 10 -13 10 -9 0 5 12 -1 26 -12 34 -27 58 -27 84
1 l20 22 27 -25 c16 -14 46 -31 67 -37 34 -10 46 -8 93 12 43 18 61 33 90 76
30 45 35 59 31 95 -6 49 -42 106 -89 141 -24 18 -45 24 -78 23 l-46 -1 42 -9z"/>
<path d="M2701 2314 c-1 -41 -22 -59 -50 -45 -11 6 -25 11 -31 11 -22 0 -80
-70 -80 -95 0 -14 -4 -25 -9 -25 -5 0 -12 -13 -16 -30 -4 -16 -11 -32 -16 -35
-5 -4 -9 -14 -9 -23 0 -21 -39 -49 -41 -30 -1 7 0 20 1 28 1 12 -3 11 -17 -4
-14 -14 -15 -20 -5 -23 16 -6 -34 -63 -54 -63 -7 0 -15 -6 -17 -12 -4 -10 -8
-9 -16 2 -9 12 -11 10 -11 -11 0 -15 -9 -33 -20 -40 -29 -20 -11 -39 40 -44
36 -4 47 -1 67 21 24 26 30 44 13 44 -5 0 -10 -8 -10 -17 0 -15 -2 -16 -10 -3
-7 11 -2 20 18 36 14 12 32 20 38 17 6 -2 25 10 42 27 25 25 32 28 39 16 10
-18 22 -11 46 26 13 21 15 33 7 53 -8 20 -6 29 9 41 11 10 16 24 14 35 -4 15
-1 18 11 13 18 -7 21 3 7 25 -5 8 -16 11 -25 8 -9 -4 -16 -2 -16 2 0 14 27 20
38 9 6 -6 12 -6 16 1 5 8 13 8 26 1 16 -9 18 -8 13 5 -3 9 0 27 7 39 6 13 10
34 7 47 -4 20 -5 19 -6 -7z"/>
<path d="M942 2296 c-38 -19 -42 -24 -28 -35 20 -17 21 -31 1 -31 -8 0 -15 4
-15 9 0 15 -29 21 -55 11 -19 -7 -25 -17 -25 -39 0 -24 5 -31 28 -36 46 -10
192 56 206 92 8 21 -21 53 -48 53 -12 -1 -40 -11 -64 -24z"/>
<path d="M5445 2241 c9 -16 -15 -112 -26 -105 -5 3 -9 0 -9 -7 0 -8 12 -10 42
-5 35 6 45 3 67 -18 15 -14 41 -29 59 -32 28 -6 33 -3 42 20 5 15 10 36 10 46
0 27 -53 52 -94 46 -28 -5 -35 -2 -44 19 -6 13 -21 29 -33 35 -16 9 -20 9 -14
1z"/>
<path d="M5380 2087 c0 -11 4 -15 11 -11 9 5 10 -1 5 -22 -4 -16 -7 -38 -7
-50 0 -12 -9 -26 -22 -32 -18 -9 -14 -10 23 -5 42 5 47 3 68 -26 17 -24 30
-31 56 -31 29 0 36 5 45 31 6 18 11 38 11 45 0 19 -53 44 -91 44 -24 0 -40 9
-65 38 -25 28 -33 33 -34 19z"/>
<path d="M1215 2041 c4 -7 7 -28 7 -47 0 -32 1 -34 15 -17 14 17 14 17 7 -2
-4 -11 -7 -27 -8 -36 0 -10 -6 -15 -15 -11 -9 3 -12 1 -8 -5 4 -6 2 -13 -5
-15 -6 -2 -16 -18 -22 -36 -6 -17 -13 -31 -16 -29 -11 5 -38 -29 -30 -38 5 -5
10 -14 12 -20 1 -5 11 -9 22 -7 32 4 0 -25 -35 -32 -49 -9 -115 -86 -75 -86
12 0 12 -7 3 -37 -6 -21 -15 -44 -20 -51 -11 -14 -48 -12 -68 5 -8 6 -25 14
-39 18 -24 6 -23 5 8 -23 40 -37 97 -50 121 -28 10 9 23 16 30 16 14 0 34 48
25 62 -4 6 0 14 7 19 11 7 9 10 -8 15 -32 9 -29 34 3 34 14 0 23 4 19 10 -3 6
0 11 7 12 7 0 18 2 23 2 6 1 16 5 22 9 9 6 11 3 7 -7 -3 -9 -1 -16 5 -16 7 0
14 7 18 16 3 8 12 13 21 9 8 -3 21 3 29 12 14 17 14 17 8 -2 -4 -11 -9 -26
-12 -32 -9 -22 20 -14 52 13 19 16 23 24 12 20 -18 -6 -18 -5 0 26 10 17 24
33 32 36 9 3 8 -4 -5 -24 l-18 -29 32 29 c37 34 39 44 15 62 -22 17 -36 18
-31 2 6 -16 -80 -81 -94 -72 -6 4 -25 10 -42 14 l-31 6 44 23 c37 20 42 25 28
33 -16 8 -16 11 -1 25 10 10 12 19 5 26 -6 6 -4 21 7 43 15 33 15 35 -14 71
-28 35 -66 60 -49 34z"/>
<path d="M5322 1909 c-8 -12 -9 -18 -3 -14 21 12 11 -14 -12 -32 -13 -10 -24
-26 -24 -36 0 -14 7 -17 37 -12 33 5 39 2 69 -35 40 -50 73 -54 96 -10 8 16
15 35 15 43 0 23 -33 46 -79 53 -42 7 -50 11 -74 47 -11 16 -13 16 -25 -4z"/>
<path d="M5253 1773 c-7 -3 -13 -14 -13 -25 0 -10 -7 -26 -15 -34 -28 -28 -19
-49 22 -49 30 0 40 -5 50 -25 29 -58 83 -67 107 -18 9 17 16 36 16 43 0 20
-33 42 -74 48 -22 4 -43 12 -47 19 -17 30 -35 45 -46 41z"/>
<path d="M5139 1655 c-1 -5 -1 -14 0 -19 1 -5 -6 -17 -16 -28 -9 -10 -18 -32
-19 -48 -2 -28 0 -30 37 -30 34 0 42 -5 64 -40 27 -42 66 -60 89 -41 8 7 20
26 27 43 12 29 11 32 -17 54 -16 13 -43 24 -59 24 -25 0 -33 6 -42 31 -10 25
-16 29 -34 24 -12 -4 -19 -3 -16 2 3 5 2 15 -4 23 -5 8 -9 11 -10 5z"/>
<path d="M1395 1375 c-28 -32 -60 -68 -72 -79 -29 -25 -29 -35 2 -68 22 -24
28 -26 45 -15 11 6 20 15 20 18 0 4 18 26 40 50 28 30 39 50 36 64 -3 11 -9
35 -13 54 l-8 34 -50 -58z"/>
<path d="M1866 1331 c-20 -23 -20 -57 0 -65 8 -3 12 -11 8 -17 -5 -8 -10 -6
-16 5 -9 17 -48 23 -48 7 0 -5 10 -11 22 -14 12 -4 19 -9 15 -13 -4 -4 3 -12
16 -18 18 -10 25 -8 39 9 10 11 17 15 18 8 0 -16 -36 -53 -52 -54 -46 -3 -62
-8 -72 -21 -6 -8 -22 -20 -34 -27 -41 -22 -16 -23 27 -2 22 12 46 21 54 21 19
0 79 47 94 73 16 29 16 79 1 99 -20 24 -55 28 -72 9z"/>
<path d="M3388 1030 c-17 -30 -41 -39 -53 -20 -7 12 -25 4 -25 -11 0 -6 6 -7
13 -3 8 6 8 3 -1 -9 -10 -12 -11 -21 -3 -34 8 -14 11 -15 12 -3 1 8 1 18 0 23
0 4 8 7 19 7 11 0 19 -3 18 -7 -3 -14 14 -63 21 -59 3 2 14 -7 24 -19 16 -23
16 -24 0 -34 -17 -10 -16 -11 5 -17 12 -3 22 -10 22 -15 0 -5 -8 -5 -17 -2
-13 5 -15 2 -10 -11 4 -10 7 -22 7 -27 0 -6 4 -8 8 -5 4 2 9 -4 9 -15 1 -10
-2 -19 -7 -19 -5 0 -4 -11 2 -25 6 -14 18 -25 25 -25 8 0 11 -4 8 -10 -8 -13
-5 -13 34 1 24 9 31 16 26 28 -4 9 -16 43 -27 76 -10 33 -24 68 -29 78 -6 10
-19 53 -30 95 -10 42 -23 80 -27 84 -4 4 -15 -6 -24 -22z"/>
</g>
</svg>
